<svg width="1152" height="515" viewBox="0 0 1152 515" fill="none" xmlns="http://www.w3.org/2000/svg">
<path d="M0 497.342V0.139893H1152V407.53C1108.25 428.78 997.865 474.488 916.783 477.295C835.702 480.101 638.617 435.997 566.768 437.601C494.918 439.205 407.415 460.993 364.867 476.493C322.319 491.993 220.823 512.639 150.523 514.182C84.2128 515.638 19.4573 503.223 0 497.342Z" fill="url(#paint0_linear)"/>
<path d="M0 201.919V130.496C44.6727 114.045 129.5 62.2334 129.5 0.5H262H506.5C431.466 1.97126 321.139 4.73781 231 72.1399C114.863 158.982 40.1252 203.123 0 201.919Z" fill="white" fill-opacity="0.1"/>
<path d="M162.106 351.16C91.0842 400.514 45.3415 408.137 0 414.156V452.275C15.6488 457.09 14.4451 471.94 88.2754 467.523C162.106 463.105 300.136 392.087 345.478 338.721C390.819 285.354 528.128 202.616 749.94 284.151C971.752 365.685 1110.4 300.201 1151.99 257.267V163.374C1139.29 174.609 1108.1 198.844 1084.99 205.906C1056.1 214.734 981.061 229.179 952.171 176.615C923.281 124.051 984.271 95.1609 1036.83 83.9258C1078.89 74.9378 1131.13 19.8588 1151.99 1H1083.5C1084.7 45.539 962.202 43.8007 871.519 50.6219C780.836 57.4432 672.097 27.7506 495.145 59.4495C318.193 91.1484 233.127 301.806 162.106 351.16Z" fill="#FEFEFE" fill-opacity="0.1"/>
<defs>
<linearGradient id="paint0_linear" x1="1152" y1="-111.7" x2="0.58318" y2="515.654" gradientUnits="userSpaceOnUse">
<stop stop-color="#FDCA4B"/>
<stop offset="1" stop-color="#ED6515"/>
</linearGradient>
</defs>
</svg>
