<svg width="115" height="115" viewBox="0 0 115 115" fill="none" xmlns="http://www.w3.org/2000/svg">
<g id="book-opened">
<path id="Rectangle 2" fill-rule="evenodd" clip-rule="evenodd" d="M57.5 95.8333C57.5 95.8333 57.5 28.75 57.5 28.75C57.5 28.75 47.9166 19.1666 38.3332 19.1666C28.7499 19.1666 14.3749 28.75 14.3749 28.75C14.3749 28.75 14.3749 95.8333 14.3749 95.8333C14.3749 95.8333 28.7499 86.25 38.3332 86.25C47.9166 86.25 57.5 95.8333 57.5 95.8333Z" stroke="#F9A826" stroke-width="3" stroke-linecap="round" stroke-linejoin="round"/>
<path id="Rectangle 2_2" fill-rule="evenodd" clip-rule="evenodd" d="M57.5 95.8333C57.5 95.8333 57.5 28.75 57.5 28.75C57.5 28.75 67.0834 19.1666 76.6667 19.1666C86.2501 19.1666 100.625 28.75 100.625 28.75C100.625 28.75 100.625 95.8333 100.625 95.8333C100.625 95.8333 86.2501 86.25 76.6667 86.25C67.0834 86.25 57.5 95.8333 57.5 95.8333Z" stroke="#F9A826" stroke-width="3" stroke-linecap="round" stroke-linejoin="round"/>
</g>
</svg>
