<svg width="238" height="630" viewBox="0 0 238 630" fill="none" xmlns="http://www.w3.org/2000/svg">
<circle cx="197" cy="211" r="41" fill="url(#paint0_linear)"/>
<circle cx="52" cy="318" r="41" fill="url(#paint1_linear)"/>
<circle cx="84" cy="41" r="41" fill="url(#paint2_linear)"/>
<circle cx="114" cy="516" r="114" fill="url(#paint3_linear)"/>
<g clip-path="url(#clip0)">
<path d="M144.144 516.747L145.596 516.498C145.735 516.473 145.874 516.444 146.013 516.419C143.714 515.004 141.969 512.855 141.064 510.326C140.159 507.797 140.149 505.039 141.034 502.503C141.92 499.967 143.649 497.806 145.937 496.374C148.226 494.942 150.937 494.324 153.626 494.622L151.722 499.115L156.233 495.209C156.244 495.212 156.254 495.215 156.264 495.219C157.741 495.735 159.101 496.534 160.266 497.571C161.432 498.609 162.38 499.863 163.057 501.264C163.733 502.664 164.125 504.183 164.209 505.734C164.294 507.284 164.07 508.836 163.549 510.301C163.474 510.514 163.384 510.717 163.298 510.923C164.571 510.289 165.793 509.55 166.789 508.604C168.806 506.688 169.911 504.044 171.145 500.785C173.592 494.329 175.947 487.779 178.208 481.215C175.714 479.877 173.783 477.7 172.762 475.077C171.741 472.453 171.696 469.555 172.636 466.901C172.757 466.56 172.898 466.231 173.046 465.909C173.084 465.828 173.121 465.748 173.16 465.668C173.311 465.358 173.471 465.055 173.646 464.764C173.675 464.716 173.707 464.672 173.736 464.625C173.888 464.379 174.049 464.141 174.218 463.91C174.281 463.824 174.344 463.737 174.409 463.653C174.601 463.404 174.799 463.162 175.009 462.931C175.079 462.854 175.153 462.782 175.225 462.707C175.386 462.538 175.551 462.375 175.72 462.217C175.81 462.134 175.898 462.05 175.99 461.97C176.014 461.949 176.036 461.927 176.059 461.906C176.061 461.908 176.061 461.909 176.063 461.911C178.163 460.096 180.838 459.068 183.624 459.006C186.409 458.944 189.128 459.851 191.308 461.571L188.831 467.417L193.29 463.558C194.851 465.53 195.735 467.944 195.815 470.45C195.894 472.955 195.164 475.42 193.731 477.484C193.735 477.486 193.74 477.487 193.744 477.488C193.695 477.559 193.64 477.624 193.59 477.694C193.496 477.825 193.399 477.953 193.301 478.079C193.174 478.241 193.043 478.398 192.908 478.552C192.807 478.668 192.707 478.786 192.601 478.898C192.447 479.061 192.285 479.216 192.122 479.371C192.027 479.461 191.936 479.555 191.839 479.642C191.582 479.869 191.317 480.084 191.043 480.288C190.947 480.36 190.845 480.423 190.747 480.491C190.555 480.625 190.361 480.757 190.162 480.88C190.038 480.956 189.911 481.025 189.784 481.097C189.601 481.2 189.416 481.3 189.228 481.394C189.095 481.46 188.96 481.523 188.824 481.585C188.631 481.672 188.435 481.753 188.237 481.83C188.104 481.882 187.972 481.934 187.838 481.981C187.615 482.059 187.39 482.126 187.163 482.191C187.049 482.224 186.936 482.261 186.821 482.29C186.481 482.376 186.137 482.449 185.789 482.505C185.724 482.516 185.657 482.52 185.592 482.529C185.303 482.571 185.013 482.605 184.721 482.625C184.595 482.634 184.469 482.635 184.343 482.64C184.107 482.649 183.87 482.654 183.633 482.649C183.494 482.646 183.356 482.639 183.217 482.631C182.985 482.618 182.753 482.598 182.522 482.571C182.385 482.555 182.248 482.54 182.111 482.519C181.862 482.482 181.614 482.433 181.366 482.379C181.35 482.376 181.333 482.374 181.317 482.37C180.363 485.139 179.39 487.903 178.401 490.66C179.608 489.584 181.024 488.763 182.563 488.249C184.101 487.735 185.729 487.538 187.347 487.67C188.965 487.802 190.539 488.261 191.972 489.018C193.404 489.775 194.666 490.815 195.679 492.073L191.557 496.594L197.138 494.384C198.494 497.203 198.666 500.441 197.616 503.386C197.252 504.421 196.742 505.399 196.101 506.292C194.722 508.226 192.788 509.705 190.551 510.537C188.314 511.368 185.877 511.514 183.556 510.955C181.234 510.396 179.136 509.158 177.532 507.402C175.929 505.646 174.894 503.452 174.564 501.106C174.459 501.384 174.357 501.665 174.252 501.943C173.162 504.817 171.807 508.394 169.084 510.98C167.239 512.733 164.968 513.845 162.79 514.786C161.372 515.398 159.934 515.964 158.478 516.484C156.859 517.457 155.03 518.035 153.142 518.17C150.844 518.803 148.517 519.332 146.168 519.74L144.704 519.99C143.388 520.213 142.039 520.444 140.699 520.709C140.892 520.766 141.085 520.82 141.277 520.887C143.663 521.719 145.721 523.283 147.152 525.352C148.584 527.42 149.315 529.887 149.24 532.394L140.059 535.189L148.367 536.497C147.607 538.349 146.386 539.98 144.818 541.237C143.25 542.494 141.386 543.337 139.401 543.686C137.416 544.036 135.374 543.88 133.465 543.235C131.557 542.59 129.845 541.475 128.489 539.995C128.573 540.275 128.658 540.555 128.743 540.834C128.911 541.39 129.078 541.941 129.239 542.488C131.425 549.937 130.484 555.796 126.59 558.986L124.476 556.449C128.267 553.344 127.091 546.945 126.053 543.407C125.895 542.87 125.731 542.328 125.565 541.783C124.141 537.093 122.527 531.776 124.618 526.891C127.768 519.527 136.848 517.986 144.144 516.747Z" fill="#F2F2F2"/>
<path d="M141.453 559.941H77.1294C75.02 559.941 72.997 559.11 71.5055 557.631C70.014 556.152 69.176 554.146 69.176 552.054V522.83C69.176 522.406 69.2632 521.986 69.4322 521.596C69.6013 521.206 69.8486 520.855 70.1592 520.563L104.244 488.522C105.607 487.241 107.413 486.527 109.291 486.527C111.169 486.527 112.975 487.241 114.338 488.522L146.836 519.071C147.648 519.834 148.295 520.753 148.737 521.772C149.178 522.791 149.406 523.889 149.406 524.998V552.054C149.406 553.09 149.201 554.115 148.801 555.072C148.401 556.029 147.815 556.899 147.077 557.631C146.338 558.363 145.461 558.944 144.497 559.341C143.532 559.737 142.497 559.941 141.453 559.941V559.941Z" fill="#3F3D56"/>
<path opacity="0.1" d="M69.176 523.31H148.738V555.179C148.738 556.442 148.232 557.653 147.331 558.546C146.43 559.439 145.209 559.941 143.935 559.941H73.9785C72.7048 559.941 71.4833 559.439 70.5826 558.546C69.682 557.653 69.176 556.442 69.176 555.179V523.31V523.31Z" fill="black"/>
<path d="M134.416 498.199H83.9986C81.5818 498.199 79.6226 500.142 79.6226 502.538V552.535C79.6226 554.932 81.5818 556.875 83.9986 556.875H134.416C136.833 556.875 138.792 554.932 138.792 552.535V502.538C138.792 500.142 136.833 498.199 134.416 498.199Z" fill="#F9A826"/>
<path opacity="0.1" d="M138.792 524.628V556.875H79.6226V524.628L109.207 538.808L138.792 524.628Z" fill="black"/>
<path d="M109.208 540.631L71.2999 522.462C71.0654 522.35 70.806 522.298 70.546 522.312C70.286 522.327 70.0338 522.406 69.8132 522.543C69.5926 522.68 69.4108 522.871 69.2847 523.097C69.1587 523.323 69.0925 523.577 69.0925 523.835V555.096C69.0925 555.721 69.2167 556.341 69.4581 556.918C69.6994 557.496 70.0532 558.021 70.4991 558.463C70.9451 558.906 71.4745 559.256 72.0572 559.496C72.6399 559.735 73.2644 559.858 73.895 559.858H144.52C145.151 559.858 145.775 559.735 146.358 559.496C146.941 559.256 147.47 558.906 147.916 558.463C148.362 558.021 148.716 557.496 148.957 556.918C149.199 556.341 149.323 555.721 149.323 555.096V524.371C149.323 524.056 149.242 523.746 149.088 523.47C148.934 523.194 148.713 522.962 148.443 522.794C148.174 522.627 147.866 522.53 147.549 522.512C147.232 522.495 146.915 522.558 146.629 522.695L109.208 540.631Z" fill="#3F3D56"/>
<path d="M101.268 503.586H84.7207V505.906H101.268V503.586Z" fill="#F2F2F2"/>
<path d="M132.525 512.039H83.3835V513.365H132.525V512.039Z" fill="#F2F2F2"/>
<path d="M132.525 516.514H83.3835V517.84H132.525V516.514Z" fill="#F2F2F2"/>
<path d="M132.525 520.99H83.3835V522.316H132.525V520.99Z" fill="#F2F2F2"/>
<path d="M39.0896 559.858H176.818" stroke="#3F3D56" stroke-miterlimit="10"/>
<path d="M28.9014 539.448C28.9014 549.221 35.0839 557.129 42.7243 557.129Z" fill="#46455B"/>
<path d="M42.7241 557.129C42.7241 547.246 49.6234 539.249 58.1497 539.249Z" fill="#F9A826"/>
<path d="M33.9097 540.334C33.9097 549.617 37.8521 557.129 42.7243 557.129Z" fill="#F9A826"/>
<path d="M42.7241 557.129C42.7241 544.501 50.6987 534.283 60.5536 534.283Z" fill="#46455B"/>
<path d="M39.8164 557.253C39.8164 557.253 41.7767 557.193 42.3675 556.776C42.9583 556.359 45.383 555.861 45.5295 556.53C45.6761 557.199 48.4755 559.858 46.2623 559.875C44.0491 559.893 41.1199 559.533 40.5302 559.177C39.9406 558.821 39.8164 557.253 39.8164 557.253Z" fill="#A8A8A8"/>
<path opacity="0.2" d="M46.3018 559.642C44.0886 559.66 41.1594 559.301 40.5697 558.944C40.1207 558.673 39.9417 557.7 39.8819 557.251C39.8404 557.253 39.8164 557.253 39.8164 557.253C39.8164 557.253 39.9406 558.821 40.5302 559.177C41.1199 559.533 44.0492 559.893 46.2623 559.875C46.9012 559.87 47.1219 559.645 47.1097 559.311C47.021 559.513 46.7773 559.639 46.3018 559.642Z" fill="black"/>
<path d="M149.199 485.979C149.098 486.867 148.416 487.582 148.163 488.439C147.782 489.729 148.44 491.114 149.341 492.118C150.067 492.921 150.947 493.572 151.929 494.034C152.912 494.497 153.977 494.761 155.063 494.813C155.382 494.84 155.703 494.806 156.009 494.71C156.282 494.601 156.527 494.435 156.729 494.222C157.407 493.547 157.771 492.612 157.916 491.67C158.061 490.727 158.005 489.768 157.948 488.816C157.948 488.62 157.912 488.425 157.842 488.241C157.749 488.066 157.622 487.911 157.468 487.786C156.98 487.341 156.442 486.954 155.865 486.631C155.604 486.515 155.374 486.34 155.193 486.121C155.084 485.933 155.014 485.726 154.986 485.511L154.809 484.616C154.777 484.358 154.688 484.11 154.549 483.891C154.236 483.472 153.637 483.415 153.113 483.395L151.189 483.32C150.591 483.297 149.803 483.127 149.219 483.243C148.674 483.352 148.855 483.85 148.954 484.304C149.098 484.852 149.18 485.414 149.199 485.979V485.979Z" fill="#A0616A"/>
<path opacity="0.1" d="M149.199 485.979C149.098 486.867 148.416 487.582 148.163 488.439C147.782 489.729 148.44 491.114 149.341 492.118C150.067 492.921 150.947 493.572 151.929 494.034C152.912 494.497 153.977 494.761 155.063 494.813C155.382 494.84 155.703 494.806 156.009 494.71C156.282 494.601 156.527 494.435 156.729 494.222C157.407 493.547 157.771 492.612 157.916 491.67C158.061 490.727 158.005 489.768 157.948 488.816C157.948 488.62 157.912 488.425 157.842 488.241C157.749 488.066 157.622 487.911 157.468 487.786C156.98 487.341 156.442 486.954 155.865 486.631C155.604 486.515 155.374 486.34 155.193 486.121C155.084 485.933 155.014 485.726 154.986 485.511L154.809 484.616C154.777 484.358 154.688 484.11 154.549 483.891C154.236 483.472 153.637 483.415 153.113 483.395L151.189 483.32C150.591 483.297 149.803 483.127 149.219 483.243C148.674 483.352 148.855 483.85 148.954 484.304C149.098 484.852 149.18 485.414 149.199 485.979V485.979Z" fill="black"/>
<path d="M161.432 525.927C161.16 528.89 160.887 531.852 160.615 534.813C160.401 537.144 160.184 539.484 159.766 541.784C159.621 542.577 159.452 543.366 159.251 544.148C158.692 546.318 157.882 548.44 157.621 550.666C157.612 550.73 157.605 550.795 157.599 550.861C157.569 551.353 157.475 551.839 157.319 552.307C157.188 552.647 156.988 552.957 156.846 553.292C156.564 553.964 156.527 554.706 156.492 555.433C155.5 554.88 154.414 554.512 153.288 554.347C152.744 554.267 152.139 554.209 151.768 553.807C151.358 553.362 151.404 552.681 151.473 552.083C151.689 550.228 151.904 548.373 152.119 546.519C152.19 545.721 152.326 544.931 152.528 544.156C152.602 543.898 152.692 543.644 152.783 543.39C152.908 543.041 153.034 542.692 153.129 542.333C153.266 541.753 153.362 541.164 153.415 540.571C153.637 538.705 153.904 536.842 154.138 534.977L154.15 534.878C154.501 532.051 154.768 529.21 154.691 526.363C154.68 525.941 154.662 525.519 154.635 525.096C154.596 524.484 154.54 524.159 155.052 523.775C155.617 523.352 156.361 523.056 157.008 522.779C157.356 522.629 161.19 521.28 161.279 521.576C161.459 522.207 161.553 522.86 161.56 523.516C161.563 524.322 161.52 525.127 161.432 525.927Z" fill="#605D82"/>
<path opacity="0.1" d="M159.766 541.784C159.621 542.577 159.452 543.366 159.251 544.148C158.692 546.318 157.882 548.44 157.62 550.666C157.612 550.73 157.605 550.795 157.598 550.861C155.889 548.44 154.45 545.837 152.782 543.39C152.908 543.041 153.034 542.692 153.129 542.333C153.266 541.753 153.362 541.164 153.415 540.571C153.637 538.704 153.904 536.842 154.138 534.977L154.15 534.878C154.248 535.274 154.388 535.659 154.567 536.026C155.687 538.283 158.348 539.424 159.65 541.584C159.69 541.65 159.728 541.717 159.766 541.784Z" fill="black"/>
<path d="M145.898 521.939C145.955 523.749 146.247 525.543 146.538 527.331L147.14 531.019C147.469 533.038 147.812 535.098 148.776 536.906C149.496 538.259 150.535 539.413 151.474 540.626C153.783 543.609 155.518 546.989 157.707 550.06C158.344 550.952 159.254 551.917 160.34 551.731C161.053 551.609 161.57 551.02 162.131 550.566C162.791 550.031 163.588 549.64 164.108 548.969C164.627 548.299 164.729 547.184 164.025 546.707C163.77 546.567 163.5 546.457 163.219 546.38C162.127 545.968 161.421 544.911 160.971 543.842C160.521 542.773 160.249 541.623 159.65 540.629C158.348 538.469 155.687 537.328 154.566 535.071C153.939 533.806 153.879 532.349 153.831 530.94L153.709 527.35C153.695 526.957 153.685 526.549 153.846 526.19C154.275 525.234 155.568 525.145 156.616 525.024C157.805 524.885 158.957 524.525 160.011 523.961C160.614 523.638 161.204 523.226 161.527 522.626C161.821 522.079 161.862 521.437 161.896 520.817L162.259 514.31C162.29 513.751 162.319 513.172 162.12 512.647C161.62 511.329 159.942 510.898 158.524 510.961C155.885 511.078 153.448 512.204 150.96 512.964C150.343 513.157 149.718 513.319 149.085 513.449C148.526 513.561 147.85 513.514 147.318 513.693C146.37 514.009 146.394 516.064 146.26 516.916C145.983 518.575 145.862 520.257 145.898 521.939V521.939Z" fill="#605D82"/>
<path d="M159.981 552.004C160.214 552.237 160.29 552.578 160.351 552.9C160.687 554.687 160.862 556.5 160.873 558.319C160.858 558.488 160.892 558.659 160.972 558.81C161.037 558.9 161.126 558.97 161.229 559.014C161.901 559.332 162.682 558.889 163.243 558.402C164.282 557.5 165.161 556.288 165.22 554.92C165.209 554.567 165.222 554.214 165.257 553.864C165.348 553.348 165.652 552.899 165.919 552.449C166.374 551.681 166.741 550.865 167.013 550.017C167.115 549.698 167.183 549.296 166.931 549.074C166.842 549.005 166.741 548.952 166.632 548.92L163.593 547.801C163.33 547.704 162.675 549.373 162.571 549.555C162.317 550.002 162.064 550.255 161.553 550.358C161.032 550.463 160.412 550.312 159.926 550.57C159.104 551.006 159.516 551.538 159.981 552.004Z" fill="#535070"/>
<path d="M155.293 553.034C155.237 552.922 155.158 552.823 155.062 552.743C154.921 552.655 154.761 552.601 154.595 552.586C154.017 552.488 153.331 552.424 152.932 552.851C152.558 553.25 152.622 553.902 152.309 554.35C152.21 554.492 152.076 554.609 151.99 554.759C151.883 554.989 151.835 555.241 151.85 555.494C151.834 556.189 151.818 556.886 151.866 557.579C151.907 558.161 152.005 558.77 152.372 559.226C152.961 559.957 154.022 560.062 154.964 560.109L155.727 560.148C155.938 560.173 156.151 560.154 156.353 560.091C156.478 560.034 156.59 559.952 156.683 559.851C156.775 559.75 156.846 559.631 156.892 559.502C157.289 558.523 156.66 557.469 156.273 556.486C155.827 555.356 155.907 554.102 155.293 553.034Z" fill="#535070"/>
<path d="M148.978 480.979C148.968 480.879 148.983 480.779 149.021 480.687C149.132 480.491 149.424 480.544 149.644 480.599C150.53 480.821 151.463 480.62 152.374 480.672C153.286 480.724 154.312 481.176 154.496 482.063C155.157 481.597 155.728 481.016 156.179 480.348C156.432 479.972 156.652 479.542 156.618 479.092C156.568 478.443 156.019 477.957 155.51 477.545L153.993 476.317C153.794 476.136 153.564 475.991 153.314 475.889C152.964 475.771 152.582 475.827 152.212 475.827C151.108 475.828 149.931 475.33 148.949 475.83C148.539 476.039 148.23 476.398 147.933 476.747L146.579 478.336C146.477 478.437 146.403 478.562 146.363 478.7C146.324 478.894 146.425 479.085 146.46 479.28C146.524 479.635 146.37 480.014 146.488 480.354C146.685 480.92 147.378 481 147.801 481.325C147.959 481.446 148.207 481.855 148.395 481.85C148.734 481.841 148.969 481.24 148.978 480.979Z" fill="#3F3D56"/>
<path d="M151.274 485.662C153.668 485.662 155.609 483.738 155.609 481.364C155.609 478.99 153.668 477.066 151.274 477.066C148.881 477.066 146.94 478.99 146.94 481.364C146.94 483.738 148.881 485.662 151.274 485.662Z" fill="#A0616A"/>
<path d="M152.29 490.771C152.143 490.353 151.865 489.992 151.498 489.742C151.13 489.491 150.691 489.363 150.245 489.376C150.118 489.399 149.986 489.383 149.868 489.328C149.802 489.278 149.749 489.212 149.713 489.136C149.45 488.666 149.238 488.17 149.082 487.655C149.012 487.427 148.918 487.159 148.686 487.1C148.59 487.087 148.492 487.101 148.403 487.139C148.314 487.178 148.238 487.239 148.181 487.317C148.071 487.475 147.951 487.625 147.821 487.767C147.275 488.25 146.309 487.81 145.731 488.253C145.636 488.326 145.558 488.418 145.459 488.484C145.359 488.544 145.252 488.589 145.141 488.62C144.023 488.981 142.928 489.407 141.86 489.894C142.245 492.192 142.639 494.531 143.541 496.682C143.971 497.706 144.457 498.708 144.801 499.763C145.563 502.101 145.597 504.602 145.605 507.059C145.611 508.74 145.603 510.458 145.054 512.049C144.906 512.4 144.802 512.768 144.744 513.145C144.711 513.524 144.822 513.942 145.132 514.167C145.312 514.283 145.517 514.355 145.731 514.375C146.681 514.513 147.639 514.263 148.575 514.048C151.084 513.471 153.642 513.142 156.196 512.813L160.475 512.262C160.782 512.241 161.082 512.164 161.36 512.035C162.143 511.61 162.217 510.442 161.731 509.7C161.498 509.344 161.169 509.052 160.973 508.674C160.778 508.297 160.761 507.77 161.098 507.508C161.784 506.977 161.579 505.99 161.612 505.128C161.703 502.715 161.691 500.302 161.575 497.888C161.541 497.389 161.532 496.888 161.551 496.387C161.627 495.539 161.785 494.7 162.023 493.882L163.323 488.805C162.983 488.273 162.333 487.935 161.717 487.782C161.101 487.629 160.459 487.583 159.852 487.397C158.609 487.015 157.503 486.046 156.205 486.136C156.107 486.138 156.01 486.161 155.922 486.205C155.629 486.369 155.676 486.787 155.657 487.121C155.616 487.858 155.069 488.474 154.465 488.906C153.861 489.338 153.172 489.652 152.617 490.145C152.519 490.218 152.439 490.313 152.382 490.421C152.325 490.529 152.294 490.649 152.29 490.771V490.771Z" fill="#3F3D56"/>
<path d="M135.115 495.586C134.828 495.771 134.522 495.927 134.203 496.051C133.891 496.143 133.596 496.285 133.33 496.471C133.208 496.577 133.105 496.703 133.026 496.844C132.88 497.102 132.806 497.394 132.812 497.69C132.818 497.986 132.904 498.275 133.061 498.527C133.218 498.779 133.441 498.984 133.705 499.122C133.97 499.259 134.267 499.324 134.565 499.309C134.962 499.265 135.347 499.151 135.703 498.972L138.76 497.659C139.278 497.436 139.836 497.176 140.081 496.672C140.11 496.625 140.12 496.569 140.111 496.515C140.086 496.458 140.042 496.412 139.985 496.384C139.296 495.94 138.693 495.376 138.205 494.72C138.08 494.551 137.926 494.152 137.749 494.051C137.102 493.682 135.633 495.253 135.115 495.586Z" fill="#A0616A"/>
<path d="M167.797 494.508L168.924 495.785C169.166 496.059 169.408 496.333 169.629 496.625C170.171 497.365 170.605 498.177 170.92 499.036C171.165 499.674 171.368 500.353 171.282 501.03C171.226 501.377 171.131 501.717 171.001 502.044C170.794 502.672 170.538 503.284 170.235 503.873C169.98 504.32 169.692 504.748 169.373 505.153C168.5 506.3 167.545 507.383 166.516 508.394C166.13 508.772 165.969 509.384 165.801 509.895C165.492 510.838 164.756 511.573 164.044 512.27C163.815 512.509 163.562 512.725 163.289 512.913C162.88 513.175 162.402 513.31 161.916 513.301C161.703 513.303 161.492 513.26 161.297 513.174C160.81 512.945 160.562 512.386 160.512 511.854C160.466 511.371 160.548 510.884 160.749 510.442C161.395 509.021 163.056 508.405 164.23 507.368C164.919 506.761 165.445 505.997 165.964 505.242C166.317 504.77 166.611 504.258 166.841 503.717C167.103 503.024 167.001 502.202 167.23 501.497C167.327 501.199 167.499 500.93 167.603 500.634C167.708 500.339 167.734 499.988 167.552 499.732C167.414 499.569 167.239 499.442 167.041 499.362C166.291 498.984 165.451 498.498 165.308 497.677C165.251 497.221 165.371 496.761 165.644 496.39C165.916 496.024 166.233 495.693 166.589 495.407C166.917 495.119 167.469 494.796 167.797 494.508Z" fill="#A0616A"/>
<path d="M134.392 497.368C134.193 496.97 133.944 496.563 133.542 496.365C133.348 496.281 133.138 496.237 132.926 496.236C132.713 496.235 132.503 496.277 132.308 496.359C131.918 496.526 131.554 496.745 131.224 497.009L130.253 497.719C130.032 497.863 129.838 498.041 129.676 498.247C129.523 498.497 129.421 498.775 129.376 499.065C129.206 499.724 129.155 500.409 129.223 501.086C129.377 502.173 130.037 503.121 130.764 503.948C131.219 504.465 131.78 504.986 132.471 505.008C132.769 505.018 133.101 504.901 133.225 504.632C133.268 504.525 133.29 504.412 133.292 504.297C133.367 503.085 132.929 501.901 132.42 500.798C132.257 500.509 132.161 500.188 132.138 499.857C132.135 499.802 132.149 499.747 132.18 499.7C132.224 499.655 132.283 499.626 132.346 499.62C133.044 499.483 134.245 500.02 134.735 499.252C135.052 498.754 134.617 497.82 134.392 497.368Z" fill="#A0616A"/>
<path d="M148.75 479.626C148.741 479.527 148.756 479.427 148.793 479.334C148.905 479.138 149.197 479.192 149.417 479.247C150.302 479.468 151.235 479.268 152.147 479.319C153.058 479.371 154.085 479.823 154.268 480.71C154.93 480.245 155.5 479.664 155.951 478.995C156.204 478.62 156.425 478.19 156.39 477.74C156.341 477.09 155.791 476.605 155.283 476.193L153.766 474.965C153.567 474.784 153.337 474.639 153.087 474.537C152.737 474.418 152.355 474.475 151.985 474.475C150.881 474.476 149.704 473.977 148.722 474.478C148.312 474.687 148.003 475.045 147.706 475.395L146.352 476.983C146.25 477.085 146.176 477.21 146.136 477.347C146.097 477.541 146.198 477.733 146.233 477.927C146.297 478.282 146.142 478.661 146.261 479.002C146.458 479.568 147.151 479.648 147.574 479.972C147.732 480.093 147.979 480.503 148.168 480.498C148.507 480.489 148.742 479.888 148.75 479.626Z" fill="#3F3D56"/>
<path d="M139.545 491.405C139.37 491.517 139.216 491.659 139.091 491.824C138.932 492.062 138.9 492.363 138.763 492.615C138.471 493.153 137.788 493.344 137.362 493.786C137.294 493.847 137.247 493.927 137.227 494.015C137.225 494.135 137.265 494.252 137.341 494.345L139.397 497.549C140.081 497.609 140.738 497.184 141.422 497.24C141.678 497.261 141.939 497.349 142.185 497.274C142.36 497.197 142.525 497.097 142.674 496.977C143.082 496.721 143.626 496.691 143.969 496.353C144.298 496.029 144.34 495.522 144.336 495.062C144.341 494.662 144.3 494.264 144.214 493.874C143.911 492.644 142.962 491.7 142.368 490.611C142.078 490.08 141.921 489.77 141.308 490.134C140.692 490.5 140.124 490.985 139.545 491.405Z" fill="#3F3D56"/>
<path d="M164.506 489.785C164.893 490.033 165.241 490.336 165.54 490.683C165.854 491.083 166.031 491.573 166.332 491.983C166.623 492.38 167.02 492.687 167.351 493.053C167.852 493.607 168.192 494.284 168.526 494.951C167.711 496.005 166.822 497 165.867 497.931C165.761 498.055 165.62 498.146 165.463 498.194C165.356 498.205 165.248 498.19 165.149 498.15C165.049 498.109 164.961 498.045 164.892 497.963C164.744 497.809 164.64 497.619 164.498 497.459C164.164 497.118 163.719 496.904 163.241 496.857C162.768 496.811 162.292 496.805 161.818 496.837C161.714 496.849 161.608 496.831 161.514 496.786C161.443 496.738 161.386 496.673 161.348 496.598C160.791 495.659 160.97 494.48 161.167 493.408L161.617 490.949C161.682 490.479 161.808 490.02 161.992 489.582C162.163 489.221 162.544 488.608 163.013 488.716C163.486 488.825 164.109 489.501 164.506 489.785Z" fill="#3F3D56"/>
<path d="M82.0461 505.931C85.8309 505.931 88.8991 502.883 88.8991 499.123C88.8991 495.363 85.8309 492.315 82.0461 492.315C78.2613 492.315 75.1931 495.363 75.1931 499.123C75.1931 502.883 78.2613 505.931 82.0461 505.931Z" fill="white"/>
<path d="M82.0464 491.154C80.4265 491.154 78.843 491.631 77.4962 492.523C76.1493 493.416 75.0995 494.684 74.4796 496.168C73.8598 497.652 73.6976 499.285 74.0136 500.861C74.3296 502.436 75.1096 503.883 76.255 505.019C77.4005 506.155 78.8598 506.929 80.4485 507.242C82.0373 507.555 83.6841 507.394 85.1806 506.78C86.6772 506.165 87.9563 505.124 88.8562 503.788C89.7562 502.453 90.2365 500.883 90.2365 499.276C90.2302 497.124 89.3653 495.062 87.8307 493.54C86.2961 492.018 84.2166 491.161 82.0464 491.154V491.154ZM80.365 503.607L76.1676 499.444L77.3449 498.277L80.369 501.275L86.7518 494.946L87.9291 496.113L80.365 503.607L80.365 503.607Z" fill="#57B894"/>
</g>
<defs>
<linearGradient id="paint0_linear" x1="197" y1="252" x2="197" y2="170" gradientUnits="userSpaceOnUse">
<stop stop-color="#F9A826" stop-opacity="0.67"/>
<stop offset="1" stop-color="#FDCA4B" stop-opacity="0.8"/>
</linearGradient>
<linearGradient id="paint1_linear" x1="52" y1="359" x2="52" y2="277" gradientUnits="userSpaceOnUse">
<stop stop-color="#F9A826" stop-opacity="0.67"/>
<stop offset="1" stop-color="#FDCA4B" stop-opacity="0.8"/>
</linearGradient>
<linearGradient id="paint2_linear" x1="84" y1="82" x2="84" y2="4.17338e-07" gradientUnits="userSpaceOnUse">
<stop stop-color="#F9A826" stop-opacity="0.67"/>
<stop offset="1" stop-color="#FDCA4B" stop-opacity="0.8"/>
</linearGradient>
<linearGradient id="paint3_linear" x1="114" y1="630" x2="114" y2="402" gradientUnits="userSpaceOnUse">
<stop stop-color="#F9A826" stop-opacity="0.67"/>
<stop offset="1" stop-color="#FDCA4B" stop-opacity="0.8"/>
</linearGradient>
<clipPath id="clip0">
<rect width="169.394" height="101.155" fill="white" transform="translate(28.9014 459)"/>
</clipPath>
</defs>
</svg>
