<svg width="1152" height="700" viewBox="0 0 1152 700" fill="none" xmlns="http://www.w3.org/2000/svg">
<path d="M375.446 103.969C292.129 28.9644 175.486 -21.0398 -9 8.72459V704H1161V232.546C1130.05 221.831 1074.11 171.829 952.709 171.829C831.305 171.829 731.326 221.831 642.058 221.831C552.79 221.831 458.762 178.973 375.446 103.969Z" fill="url(#paint0_linear)"/>
<path d="M300.248 258.455C200.685 181.143 54.8298 148.105 -1 145V238C225.809 220.535 288.617 359.753 251.397 383.039C214.177 406.326 125.78 338.794 -1 383.039V516.938C167.652 412.148 340.711 598.964 554.972 560.019C753.149 523.997 982.5 372.5 1026.5 351C1070.5 329.5 1134.55 335.301 1152 338.794V287C1152 287 1130.7 280.27 1116.76 277.084C1012.79 253.325 962.085 271.499 876 306C789.915 340.501 767.5 357.424 617.78 357.424C468.06 357.424 399.811 335.767 300.248 258.455Z" fill="url(#paint1_linear)"/>
<path d="M124.995 652.295C124.454 617.968 41.4398 603.129 0 600V688.5H60.8084C82.4291 690.735 125.535 686.623 124.995 652.295Z" fill="url(#paint2_linear)"/>
<path d="M896.849 622.167C852.826 671.37 783.648 691.948 754 700H1152V656.163C1118.76 662.426 1053.17 651.69 1054.07 605.169C1054.97 558.649 1117.86 547.019 1152 558.649V479.025C1063.06 477.236 940.871 572.964 896.849 622.167Z" fill="url(#paint3_linear)"/>
<defs>
<linearGradient id="paint0_linear" x1="12" y1="16.5" x2="1161" y2="704" gradientUnits="userSpaceOnUse">
<stop stop-color="#FDCA4B"/>
<stop offset="1" stop-color="#D55104"/>
</linearGradient>
<linearGradient id="paint1_linear" x1="-0.999988" y1="-23" x2="1152" y2="665.5" gradientUnits="userSpaceOnUse">
<stop stop-color="#FFD95B"/>
<stop offset="1" stop-color="#E15D10"/>
</linearGradient>
<linearGradient id="paint2_linear" x1="14" y1="6.5" x2="1160" y2="705" gradientUnits="userSpaceOnUse">
<stop stop-color="#FFD037"/>
<stop offset="1" stop-color="#ED6515"/>
</linearGradient>
<linearGradient id="paint3_linear" x1="1152" y1="700" x2="-3.50002" y2="16.4999" gradientUnits="userSpaceOnUse">
<stop stop-color="#DD5D11"/>
<stop offset="1" stop-color="#FFD037"/>
</linearGradient>
</defs>
</svg>
