<svg width="262" height="262" viewBox="0 0 262 262" fill="none" xmlns="http://www.w3.org/2000/svg">
<g opacity="0.5" filter="url(#filter0_d)">
<circle cx="131" cy="131" r="115" fill="white"/>
</g>
<path d="M147.042 185.272L79.4098 184.943L72.6896 169.2L96.4522 167.477L92.3106 150.216L139.31 144.132L94.3044 128.505L98.2799 127.562L170.648 139.354L166.663 166.291L160.966 181.094L147.042 185.272Z" fill="#D55104"/>
<path d="M80.4471 178.349C80.4471 178.349 84.5966 177.686 87.0863 180.615C87.0863 180.615 85.2605 182.051 81.3323 180.062L80.4471 178.349Z" fill="#D55104"/>
<path d="M80.0124 178.284C80.0124 178.284 77.3647 181.538 78.6688 185.162C78.6688 185.162 80.8265 184.299 81.0616 179.906L80.0124 178.284Z" fill="#D55104"/>
<path d="M77.6334 172.934C77.6334 172.934 79.2932 169.892 85.9323 174.149C85.9323 174.149 85.0471 176.194 82.1148 176.028C79.1825 175.862 78.408 174.536 77.6334 172.934Z" fill="#D55104"/>
<path d="M77.2046 172.715C77.2046 172.715 73.7606 172.32 73.4266 180.194C73.4266 180.194 75.61 180.646 77.1611 178.156C78.7123 175.665 78.076 174.268 77.2046 172.715Z" fill="#D55104"/>
<path d="M75.1991 166.433C75.1991 166.433 77.1355 161.073 84.1619 164.886C84.1619 164.886 82.5574 169.804 75.9183 168.256L75.1991 166.433Z" fill="#D55104"/>
<path d="M73.0413 158.42C73.0413 158.42 76.6929 153.005 83.166 158.025C83.166 158.025 80.8976 163.109 73.5946 160.346L73.0413 158.42Z" fill="#D55104"/>
<path d="M72.2668 150.794C72.2668 150.794 76.5269 145.819 82.9368 150.794C82.9368 150.794 78.898 155.16 72.2668 152.065V150.794Z" fill="#D55104"/>
<path d="M71.6028 143.388C71.6028 143.388 75.9183 138.193 82.0595 143.111C82.0595 143.111 77.1908 147.698 71.6028 144.603V143.388Z" fill="#D55104"/>
<path d="M71.9901 136.812C71.9901 136.812 76.5348 130.125 82.2808 134.657C82.2808 134.657 77.4121 140.404 71.9901 138.083V136.812Z" fill="#D55104"/>
<path d="M73.0413 129.131C73.0413 129.131 77.8547 122.5 83.4426 127.583C83.4426 127.583 77.7441 133.33 73.0413 130.346V129.131Z" fill="#D55104"/>
<path d="M74.6458 122.265C74.6458 122.265 80.3444 116.032 85.3158 118.515C85.3158 118.515 79.3782 125.134 74.3968 123.918L74.6458 122.265Z" fill="#D55104"/>
<path d="M76.6375 115.756C76.6375 115.756 83.2134 108.122 87.0388 110.672C87.0388 110.672 82.1938 116.593 76.1712 117.185L76.6375 115.756Z" fill="#D55104"/>
<path d="M79.5125 108.207C79.5125 108.207 85.2684 101.975 89.4732 103.522C89.4732 103.522 84.5491 109.987 78.7399 110.153L79.5125 108.207Z" fill="#D55104"/>
<path d="M82.1148 101.146C82.1148 101.146 88.4773 95.1777 91.2436 96.2276C91.2436 96.2276 86.6516 102.859 81.8382 102.472L82.1148 101.146Z" fill="#D55104"/>
<path d="M84.6598 94.6251C84.6598 94.6251 90.1371 87.4946 93.1267 88.0472C93.1267 88.0472 89.8051 94.4041 84.6598 95.3494V94.6251Z" fill="#D55104"/>
<path d="M87.4222 85.8329C87.4222 85.8329 92.2632 80.3681 94.8794 80.38C94.8794 80.38 91.0579 87.6821 87.2226 87.615L87.4222 85.8329Z" fill="#D55104"/>
<path d="M89.0583 79.9793L93.7353 68.5959C93.7353 68.5959 93.9685 78.886 88.4635 82.0911L89.0583 79.9793Z" fill="#D55104"/>
<path d="M90.9571 67.4255C90.9571 67.4255 91.7317 57.9189 91.2337 57.1453C91.2337 57.1453 94.577 65.0494 90.9255 71.6253L90.9571 67.4255Z" fill="#D55104"/>
<path d="M75.0173 166.306C75.0173 166.306 70.1683 163.305 67.0286 170.648C67.0286 170.648 71.344 173.51 75.5883 168.179L75.0173 166.306Z" fill="#D55104"/>
<path d="M72.8852 158.114C72.8852 158.114 66.9377 155.405 64.0528 163.072C64.0528 163.072 68.6469 166.23 73.4266 160.052L72.8852 158.114Z" fill="#D55104"/>
<path d="M71.9901 151.25C71.9901 151.25 67.73 146.275 61.3201 151.25C61.3201 151.25 65.3589 155.616 71.9901 152.521V151.25Z" fill="#D55104"/>
<path d="M71.4566 143.388C71.4566 143.388 67.1412 138.193 61 143.111C61 143.111 65.8687 147.698 71.4566 144.603V143.388Z" fill="#D55104"/>
<path d="M71.9901 137.001C71.9901 137.001 68.963 129.512 62.3831 132.732C62.3831 132.732 65.9398 139.373 71.7214 138.245L71.9901 137.001Z" fill="#D55104"/>
<path d="M73.4227 129.093C73.4227 129.093 70.4133 121.473 63.7406 125.006C63.7406 125.006 67.8268 131.99 73.1263 130.269L73.4227 129.093Z" fill="#D55104"/>
<path d="M75.288 122.302C75.288 122.302 74.1024 113.948 68.5698 113.2C68.5698 113.2 69.7435 122.01 74.5431 123.808L75.288 122.302Z" fill="#D55104"/>
<path d="M76.7778 115.772C76.7778 115.772 76.3155 105.707 71.7412 105.355C71.7412 105.355 71.8953 112.995 76.2621 117.197L76.7778 115.772Z" fill="#D55104"/>
<path d="M79.9867 107.925C79.9867 107.925 78.6233 99.555 74.2565 98.5327C74.2565 98.5327 74.7979 106.638 79.554 109.979L79.9867 107.925Z" fill="#D55104"/>
<path d="M82.6325 101.215C82.6325 101.215 82.5871 92.4956 79.9196 91.2148C79.9196 91.2148 78.2657 99.109 81.8599 102.328L82.6325 101.215Z" fill="#D55104"/>
<path d="M84.8633 94.5264C84.8633 94.5264 84.4899 85.5487 81.7275 84.2837C81.7275 84.2837 80.783 91.3884 84.4504 95.1145L84.8633 94.5264Z" fill="#D55104"/>
<path d="M87.8075 86.5493C87.8075 86.5493 87.7917 79.2471 85.8197 77.5341C85.8197 77.5341 83.8596 85.5329 86.778 88.0176L87.8075 86.5493Z" fill="#D55104"/>
<path d="M88.8271 79.6202L86.9084 67.467C86.9084 67.467 84.3022 77.4256 88.9179 81.8148L88.8271 79.6202Z" fill="#D55104"/>
<path d="M89.2005 67.54C89.2005 67.54 84.2765 59.3695 84.3773 58.4617C84.3773 58.4617 84.9009 67.0249 91.0954 71.2898L89.2005 67.54Z" fill="#D55104"/>
<path d="M89.7775 65.1264C89.7775 65.1264 85.1301 53.5219 83.0277 52.5825C83.0277 52.5825 89.6668 55.9533 90.1648 64.7948L89.7775 65.1264Z" fill="#D55104"/>
<path d="M87.1989 87.6841L86.8808 87.5874C90.803 74.8126 91.7811 66.6677 89.6372 64.6251L89.8644 64.3843C92.1387 66.5394 91.216 74.5955 87.1989 87.6841Z" fill="#444053"/>
<path d="M76.3984 117.595L75.9282 117.427C76.3451 116.257 76.7936 115.069 77.2639 113.899C81.358 103.707 84.8436 94.2264 87.0784 86.9479L87.4874 86.7506C85.2486 94.0428 81.8244 103.887 77.7263 114.092C77.258 115.241 76.8114 116.423 76.3984 117.595Z" fill="#444053"/>
<path d="M86.2939 187.909C86.2307 187.84 79.8741 180.69 75.4421 168.483C72.8452 161.337 71.4 153.824 71.1603 146.226C70.856 136.727 72.8517 126.121 76.27 116.486L76.6415 116.92C68.967 138.544 72.0158 157.074 76.0606 168.233C80.4452 180.329 86.7306 187.4 86.7919 187.471L86.2939 187.909Z" fill="#444053"/>
<path d="M185.628 172.728C185.628 172.728 181.149 178.189 184.705 186.445L148.941 201.937L145.509 202.655L143.928 195.748L144.985 187.031V182.267L185.628 172.728Z" fill="#D5D6DB"/>
<path d="M72.6896 169.2L122.191 160.186L187.782 170.623L147.042 185.272L72.6896 169.2Z" fill="#D55104"/>
<path d="M72.6896 169.2L122.191 160.186L187.782 170.623L147.042 185.272L72.6896 169.2Z" fill="#D55104"/>
<path d="M72.6896 169.198C72.6896 169.198 68.06 177.958 73.395 186.05L146.801 201.937C146.801 201.937 142.244 194.958 147.036 185.272L72.6896 169.198Z" fill="#D55104"/>
<path opacity="0.1" d="M72.6896 169.198C72.6896 169.198 68.06 177.958 73.395 186.05L146.801 201.937C146.801 201.937 142.244 194.958 147.036 185.272L72.6896 169.198Z" fill="black"/>
<path opacity="0.1" d="M74.877 172.235C74.877 172.235 72.2312 178.645 74.877 182.794V172.235Z" fill="black"/>
<path opacity="0.1" d="M143.442 187.037C143.442 187.037 139.49 191.773 143.442 198.878V187.037Z" fill="black"/>
<path opacity="0.1" d="M162.574 186.957L144.848 192.863L144.911 193.05L162.637 187.144L162.574 186.957Z" fill="black"/>
<path opacity="0.1" d="M166.125 186.369L144.843 194.452L144.913 194.636L166.195 186.553L166.125 186.369Z" fill="black"/>
<path opacity="0.1" d="M169.385 186.34L144.961 196.325L145.036 196.508L169.46 186.523L169.385 186.34Z" fill="black"/>
<path opacity="0.1" d="M172.931 185.485L145.247 197.976L145.328 198.156L173.012 185.665L172.931 185.485Z" fill="black"/>
<path opacity="0.1" d="M175.91 185.489L145.466 198.781L145.545 198.961L175.989 185.67L175.91 185.489Z" fill="black"/>
<path opacity="0.1" d="M182.425 184.384L145.925 200.13L146.003 200.311L182.504 184.565L182.425 184.384Z" fill="black"/>
<path opacity="0.3" d="M91.0796 170.163L125.856 162.861L147.042 166.906L118.545 176.083L91.0796 170.163Z" fill="white"/>
<path d="M187.782 170.623C187.782 170.623 189.58 171.347 188.525 172.466C187.47 173.585 147.036 185.272 147.036 185.272L187.782 170.623Z" fill="#D55104"/>
<path d="M205.247 153.747C205.247 153.747 200.77 159.206 204.326 167.463L168.562 182.955L165.13 183.678L163.549 176.77L164.622 168.055V163.285L205.247 153.747Z" fill="#D5D6DB"/>
<path d="M92.3106 150.216L141.81 141.205L207.403 151.641L166.663 166.291L92.3106 150.216Z" fill="#3A3768"/>
<path d="M92.3027 150.216C92.3027 150.216 87.6711 158.977 93.0062 167.068L166.412 182.955C166.412 182.955 161.858 175.971 166.655 166.289L92.3027 150.216Z" fill="#3A3768"/>
<path opacity="0.1" d="M92.3027 150.216C92.3027 150.216 87.6711 158.977 93.0062 167.068L166.412 182.955C166.412 182.955 161.858 175.971 166.655 166.289L143.442 161.27L92.3027 150.216Z" fill="black"/>
<path opacity="0.1" d="M94.496 153.253C94.496 153.253 91.8522 159.662 94.496 163.812V153.253Z" fill="black"/>
<path d="M166.42 182.955L207.403 165.489C207.403 165.489 209.693 165.983 208.211 167.66C206.729 169.338 167.21 184.633 167.21 184.633L93.0141 167.068L166.42 182.955Z" fill="#3A3768"/>
<path opacity="0.1" d="M166.42 182.955L207.403 165.489C207.403 165.489 209.693 165.983 208.211 167.66C206.729 169.338 167.21 184.633 167.21 184.633L93.0141 167.068L166.42 182.955Z" fill="black"/>
<path opacity="0.1" d="M163.061 168.055C163.061 168.055 159.109 172.792 163.061 179.896V168.055Z" fill="black"/>
<path opacity="0.1" d="M182.195 167.977L164.469 173.884L164.531 174.071L182.257 168.164L182.195 167.977Z" fill="black"/>
<path opacity="0.1" d="M185.748 167.388L164.466 175.471L164.536 175.656L185.818 167.573L185.748 167.388Z" fill="black"/>
<path opacity="0.1" d="M189.005 167.357L164.582 177.342L164.656 177.525L189.08 167.54L189.005 167.357Z" fill="black"/>
<path opacity="0.1" d="M192.553 166.503L164.869 178.993L164.95 179.173L192.635 166.682L192.553 166.503Z" fill="black"/>
<path opacity="0.1" d="M195.529 166.504L165.085 179.795L165.164 179.976L195.609 166.685L195.529 166.504Z" fill="black"/>
<path opacity="0.1" d="M202.047 165.399L165.546 181.145L165.624 181.326L202.125 165.58L202.047 165.399Z" fill="black"/>
<path opacity="0.45" d="M110.701 151.181L145.477 143.879L166.663 147.925L138.166 157.102L110.701 151.181Z" fill="white"/>
<path d="M207.403 151.641C207.403 151.641 209.199 152.365 208.146 153.482C207.093 154.599 166.663 166.289 166.663 166.289L207.403 151.641Z" fill="#3A3768"/>
<path d="M207.104 132.032C207.104 132.032 202.625 141.834 206.182 150.09L170.417 161.24L166.993 161.965L165.412 155.057L166.469 146.34V141.57L207.104 132.032Z" fill="#D5D6DB"/>
<path d="M94.1739 128.503L143.675 119.49L209.268 129.926L168.526 144.576L94.1739 128.503Z" fill="#D55104"/>
<path d="M94.1739 128.501C94.1739 128.501 89.5364 137.262 94.8714 145.353L168.277 161.24C168.277 161.24 163.721 154.256 168.518 144.576L94.1739 128.501Z" fill="#D55104"/>
<path opacity="0.1" d="M94.1739 128.501C94.1739 128.501 89.5364 137.262 94.8714 145.353L168.277 161.24C168.277 161.24 163.721 154.256 168.518 144.576L94.1739 128.501Z" fill="black"/>
<path opacity="0.1" d="M96.3613 131.538C96.3613 131.538 93.7155 137.948 96.3613 142.097V131.538Z" fill="black"/>
<path d="M168.285 161.24L209.266 148.116C209.266 148.116 211.558 148.61 210.076 150.287C208.594 151.965 169.076 162.918 169.076 162.918L94.8793 145.353L168.285 161.24Z" fill="#D55104"/>
<path opacity="0.1" d="M168.285 161.24L209.266 148.116C209.266 148.116 211.558 148.61 210.076 150.287C208.594 151.965 169.076 162.918 169.076 162.918L94.8793 145.353L168.285 161.24Z" fill="black"/>
<path opacity="0.1" d="M164.926 146.34C164.926 146.34 160.974 151.077 164.926 158.181V146.34Z" fill="black"/>
<path opacity="0.1" d="M184.061 146.262L166.335 152.168L166.397 152.356L184.123 146.449L184.061 146.262Z" fill="black"/>
<path opacity="0.1" d="M187.612 145.674L166.33 153.757L166.4 153.941L187.682 145.858L187.612 145.674Z" fill="black"/>
<path opacity="0.1" d="M190.868 145.644L166.444 155.629L166.519 155.811L190.943 145.826L190.868 145.644Z" fill="black"/>
<path opacity="0.1" d="M194.419 144.787L166.734 157.278L166.816 157.458L194.5 144.967L194.419 144.787Z" fill="black"/>
<path opacity="0.1" d="M197.396 144.791L166.952 158.082L167.031 158.263L197.475 144.972L197.396 144.791Z" fill="black"/>
<path opacity="0.1" d="M203.912 143.687L167.412 159.433L167.49 159.614L203.991 143.868L203.912 143.687Z" fill="black"/>
<path opacity="0.3" d="M112.564 129.466L147.34 122.164L168.526 126.21L140.029 135.387L112.564 129.466Z" fill="white"/>
<path d="M209.266 129.926C209.266 129.926 211.064 130.65 210.009 131.769C208.954 132.888 168.526 144.576 168.526 144.576L209.266 129.926Z" fill="#D55104"/>
<path d="M202.271 123.459C200.979 119.952 193.866 119.622 190.779 120.516C188.586 121.154 183.962 121.872 181.492 122.233L181.332 122.081C181.652 121.986 181.66 121.754 181.621 121.408C181.598 120.953 181.604 120.497 181.641 120.042C183.154 120.512 184.502 119.401 184.502 119.401C186.28 118.612 185.802 115.233 186.142 114.309C186.397 113.619 186.671 109.549 186.794 107.52H186.819L186.833 106.839C186.851 106.545 186.859 106.374 186.859 106.374C186.859 106.374 187.033 101.412 187.373 100.408C187.689 99.484 187.946 94.8303 187.985 94.0922C187.985 94.0291 187.985 93.9955 187.985 93.9955L187.96 93.5653C187.977 93.2515 187.985 92.9022 187.983 92.5351C187.983 90.8477 187.807 88.7222 187.786 88.3788C187.786 88.3294 187.786 88.2702 187.786 88.1992C187.8 87.4788 187.709 83.8712 184.636 82.5075C183.504 82.0022 182.142 81.4003 180.824 80.8142C180.485 77.8834 179.708 74.9685 179.775 72.0161C179.775 71.572 179.815 71.128 179.858 70.6859C179.858 70.8142 179.844 70.9444 179.842 71.0806C179.842 71.3668 179.842 71.6549 179.842 71.9411C179.959 68.2485 181.356 64.5363 181.226 60.9227C181.214 61.276 181.188 61.6312 181.154 61.9865C181.223 60.7642 181.095 59.5389 180.775 58.3571C180.657 57.9407 180.496 57.5104 180.155 57.2322C179.832 57.0081 179.461 56.8615 179.072 56.8039C178.137 56.5649 177.187 56.3882 176.228 56.275C176.083 55.8297 175.867 55.4106 175.588 55.0336C173.585 52.2865 170.617 49.705 167.108 49.113C165.347 48.8169 163.322 49.0636 162.124 50.3208C161.999 50.4312 161.882 50.5499 161.773 50.676C161.128 51.4437 160.852 52.4522 160.192 53.218C160.148 53.2693 160.099 53.3166 160.052 53.366C158.759 54.5205 156.746 54.7613 155.309 55.7974C155.056 55.9834 154.819 56.19 154.6 56.4151C154.021 56.988 153.502 57.6182 153.051 58.2959C152.405 59.2038 151.741 60.1491 151.535 61.2326C151.122 63.4035 152.602 65.4619 152.877 67.6466C153.489 72.5351 148.073 76.873 149.099 81.6963C149.373 82.8813 149.977 83.9645 150.842 84.8205C148.729 86.7309 146.931 88.584 146.931 88.584V88.6945H146.597L146.631 89.0893H146.597L146.781 91.2306L146.597 94.3488C146.597 94.3488 146.597 94.3823 146.597 94.4455V94.4613V94.5461C146.597 94.5461 146.597 94.5797 146.597 94.6428H146.609C146.671 95.7855 146.914 99.8945 147.202 100.761C147.542 101.765 147.714 106.727 147.714 106.727C147.714 106.727 148.089 113.739 148.433 114.667C148.777 115.594 148.289 118.963 150.073 119.758C150.595 120.158 151.213 120.414 151.865 120.5C151.774 121.238 151.832 121.773 152.126 121.941C152.252 122.015 152.395 122.056 152.541 122.059C152.42 122.239 152.312 122.427 152.219 122.622C151.511 122.548 150.815 122.384 150.148 122.134C148.231 121.345 141.871 119.569 140.023 120.818C138.176 122.067 133.73 123.2 135.783 128.229C137.836 133.257 138.792 133.384 138.792 133.384C139.424 133.842 139.979 134.398 140.434 135.032C141.051 135.957 146.795 138.075 148.231 138.075C148.842 138.065 149.453 138.096 150.059 138.166C150.059 138.166 148.5 139.531 148.708 140.325C148.915 141.118 148.233 147.469 148.233 147.469C148.233 147.469 149.814 149.06 150.49 146.974L150.514 147.005C150.64 147.177 151.324 147.952 152.61 146.974C153.137 146.575 153.696 146.221 154.282 145.916L160.51 145.036C161.159 144.995 161.81 144.99 162.46 145.022C163.448 145.103 164.418 144.518 165.029 144.067C166.319 144.556 167.769 145.091 168.459 145.286C169.858 145.681 176.288 147.404 177.791 146.865C178.104 146.741 178.382 146.543 178.602 146.289L180.036 146.334L179.364 146.468C179.364 146.468 180.672 146.49 182.451 146.514L182.376 146.557L184.606 146.537C187.871 146.567 191.538 146.577 192.02 146.468C192.775 146.301 196.697 146.419 197.853 146.468H198.175C198.175 146.468 202.485 145.61 200.706 141.242C199.339 137.887 195.136 136.912 193.271 136.644C193.796 136.539 194.249 136.458 194.549 136.411C195.851 136.214 198.381 135.03 198.586 134.625C198.792 134.22 200.912 133.046 201.459 132.377C202.006 131.708 203.569 126.966 202.271 123.459ZM166.576 133.273L166.365 133.342L166.222 133.39L165.95 133.658C165.732 133.512 165.499 133.358 165.256 133.2C165.685 133.226 166.126 133.251 166.576 133.273Z" fill="url(#paint0_linear)"/>
<path d="M179.175 112.464C179.175 112.464 182.198 120.358 183.917 119.569C185.636 118.779 185.17 115.424 185.498 114.505C185.826 113.585 186.189 106.61 186.189 106.61C186.189 106.61 186.355 101.677 186.683 100.678C186.987 99.7602 187.234 95.1323 187.276 94.404C187.276 94.3409 187.276 94.3073 187.276 94.3073L186.95 88.584L185.104 88.1242L180.824 89.703L180.232 93.0837L180.001 94.404L179.902 94.9665L179.175 112.464Z" fill="#BE6F72"/>
<path opacity="0.1" d="M180.17 111.142C180.17 111.142 183.055 113.5 183.925 113.707C184.794 113.915 185.328 115.754 185.328 115.754" fill="black"/>
<path d="M155.533 112.809C155.533 112.809 152.509 120.704 150.79 119.914C149.071 119.125 149.538 115.77 149.21 114.85C148.882 113.93 148.518 106.956 148.518 106.956C148.518 106.956 148.352 102.022 148.024 101.023C147.72 100.106 147.473 95.4776 147.431 94.7494C147.431 94.6862 147.431 94.6527 147.431 94.6527L147.759 88.9294L149.605 88.4695L153.885 90.0484L154.477 93.4291L154.709 94.7494L154.807 95.3118L155.533 112.809Z" fill="#BE6F72"/>
<path d="M175.219 70.5635H168.471V81.0687H175.219V70.5635Z" fill="#3E373A"/>
<path opacity="0.1" d="M175.219 70.5635H168.471V81.0687H175.219V70.5635Z" fill="black"/>
<path d="M154.347 120.672C154.347 120.672 152.041 123.204 152.897 123.664C153.752 124.124 159.287 132.742 159.287 132.742C159.287 132.742 177.465 134.978 180.894 131.623C184.322 128.268 184.253 122.275 184.253 122.275C184.253 122.275 181.498 122.867 181.198 122.545C180.898 122.223 179.248 120.672 179.248 120.672C179.248 120.672 155.928 119.259 154.347 120.672Z" fill="#4B4B5B"/>
<path opacity="0.02" d="M154.347 120.672C154.347 120.672 152.041 123.204 152.897 123.664C153.752 124.124 159.287 132.742 159.287 132.742C159.287 132.742 177.465 134.978 180.894 131.623C184.322 128.268 184.253 122.275 184.253 122.275C184.253 122.275 181.498 122.867 181.198 122.545C180.898 122.223 179.248 120.672 179.248 120.672C179.248 120.672 155.928 119.259 154.347 120.672Z" fill="black"/>
<path d="M187.072 88.6669L181.145 93.4034L179.352 93.5337L178.694 93.5811L167.643 94.3902L156.183 93.5534L154.477 93.4291L152.304 93.2712L147.759 88.9294C147.759 88.9294 150.976 85.4875 153.794 83.1646C154.904 82.2469 155.953 81.5049 156.718 81.2128L156.848 81.1674C157.329 80.9801 157.759 80.6811 158.101 80.2951C160.326 78.0038 162.383 72.3496 162.383 72.3496C162.383 72.3496 172.198 67.2854 171.012 73.9284C169.826 80.5714 175.424 78.9294 175.424 78.9294L177.27 79.7701L177.999 80.1037L179.858 80.9543L184.053 82.8765C187.345 84.3902 187.072 88.6669 187.072 88.6669Z" fill="#BE6F72"/>
<path opacity="0.1" d="M167.183 77.7591C172.057 77.7591 176.009 73.8121 176.009 68.9432C176.009 64.0744 172.057 60.1274 167.183 60.1274C162.308 60.1274 158.356 64.0744 158.356 68.9432C158.356 73.8121 162.308 77.7591 167.183 77.7591Z" fill="black"/>
<path opacity="0.1" d="M187.086 94.9468H147.431C147.431 94.8836 147.431 94.8501 147.431 94.8501L147.759 89.1268C147.759 89.1268 150.976 85.6849 153.794 83.362L178.69 82.3752L179.848 81.1556L184.043 83.0778C187.337 84.5896 187.072 88.8662 187.072 88.8662C187.072 88.8662 187.523 93.8218 187.086 94.9468Z" fill="black"/>
<path d="M187.086 94.7494H147.431C147.431 94.6863 147.431 94.6527 147.431 94.6527L147.759 88.9294C147.759 88.9294 150.976 85.4875 153.794 83.1647L178.69 82.1779L179.848 80.9582L184.043 82.8805C187.337 84.3922 187.072 88.6689 187.072 88.6689C187.072 88.6689 187.523 93.6245 187.086 94.7494Z" fill="#E7C7CA"/>
<path opacity="0.1" d="M160.826 78.7005C160.826 78.7005 167.082 86.6618 175.414 78.5367C183.747 70.4116 176.337 96.6598 176.337 96.6598L158.356 98.7912L160.826 78.7005Z" fill="black"/>
<path d="M160.826 79.0952C160.826 79.0952 167.082 87.0565 175.414 78.9314C183.747 70.8063 176.337 97.0545 176.337 97.0545L158.356 99.186L160.826 79.0952Z" fill="#E7C7CA"/>
<path opacity="0.1" d="M177.989 80.4925L178.651 90.5753L179.36 93.9304L179.902 96.496C179.902 96.496 181.285 116.232 180.89 117.218C180.494 118.205 181.087 118.994 181.17 119.519C181.253 120.044 181.087 121.363 181.152 121.955C181.218 122.547 181.152 122.809 179.639 122.598C178.125 122.387 176.015 122.02 176.015 122.02C176.015 122.02 170.68 122.415 168.836 121.757C166.993 121.1 163.501 121.098 163.501 121.098C163.501 121.098 158.232 121.231 156.52 121.033C154.809 120.836 153.885 123.139 152.766 122.48C151.648 121.821 154.082 115.442 154.873 113.599C155.663 111.756 153.819 107.086 153.819 107.086L156.191 93.9481L156.718 90.97V81.6075L156.848 81.5621C157.329 81.3748 157.759 81.0758 158.101 80.6898L158.694 90.1115L177.268 90.7707V80.1668" fill="black"/>
<path d="M177.989 80.0977L178.651 90.1806L179.36 93.5356L179.902 96.1013C179.902 96.1013 181.285 115.837 180.89 116.824C180.494 117.81 181.087 118.6 181.17 119.125C181.253 119.65 181.087 120.968 181.152 121.56C181.218 122.152 181.152 122.415 179.639 122.203C178.125 121.992 176.015 121.625 176.015 121.625C176.015 121.625 170.68 122.02 168.836 121.363C166.993 120.706 163.501 120.704 163.501 120.704C163.501 120.704 158.232 120.836 156.52 120.638C154.809 120.441 153.885 122.744 152.766 122.085C151.648 121.426 154.082 115.047 154.873 113.204C155.663 111.361 153.819 106.691 153.819 106.691L156.191 93.5534L156.718 90.5753V81.2128L156.848 81.1674C157.329 80.9801 157.759 80.681 158.101 80.2951L158.694 89.7168L177.268 90.376V79.7721" fill="#E7C7CA"/>
<path opacity="0.1" d="M180.125 59.0557C180.012 58.6432 179.856 58.215 179.532 57.9387C179.223 57.7168 178.865 57.5707 178.489 57.5124C177.588 57.2757 176.671 57.1003 175.746 56.9874C175.614 56.5492 175.414 56.1343 175.154 55.7579C173.217 53.0265 170.352 50.451 166.981 49.8688C165.217 49.5629 163.172 49.8372 162.041 51.2266C161.421 51.9904 161.154 53.0028 160.528 53.7528C159.32 55.2093 157.141 55.3888 155.62 56.5157C154.807 57.1078 154.219 57.9663 153.644 58.7991C153.021 59.7011 152.381 60.6405 152.183 61.718C151.788 63.8712 153.213 65.9237 153.476 68.0966C154.068 72.9574 148.852 77.2696 149.838 82.0654C150.413 84.8619 152.999 86.8315 155.675 87.8301C156.617 88.1834 157.694 88.5347 158.135 89.4385C158.332 89.8333 158.366 90.2892 158.552 90.6878C159.176 92.018 161.229 92.0693 162.332 91.1003C163.434 90.1313 163.782 88.5643 163.912 87.1019C164.442 80.7154 161.881 74.406 162.18 68.0038C162.269 66.0677 162.814 63.8712 164.551 62.9949C166.888 61.8108 169.7 63.7843 172.273 63.4074C173.49 66.366 173.749 69.6313 173.012 72.7443C172.603 74.4474 171.895 76.0993 171.844 77.8558C171.767 80.5299 173.211 82.9732 174.46 85.3375C174.728 85.7796 174.907 86.2696 174.988 86.7802C175.007 87.2982 174.911 87.814 174.705 88.2899C174 90.1865 172.782 91.9469 172.644 93.9659C172.604 94.2016 172.657 94.4437 172.792 94.6408C172.932 94.7724 173.111 94.8531 173.302 94.8698C175.436 95.2349 177.282 93.3462 178.323 91.4496C179.484 89.3548 180.16 87.027 180.303 84.6369C180.518 80.6187 179.076 76.6657 179.165 72.6436C179.267 68.0709 181.336 63.4666 180.125 59.0557Z" fill="black"/>
<path d="M180.323 58.8584C180.21 58.4459 180.054 58.0176 179.73 57.7413C179.42 57.5194 179.063 57.3734 178.687 57.315C177.785 57.0783 176.869 56.903 175.944 56.7901C175.812 56.3519 175.612 55.937 175.351 55.5606C173.415 52.8292 170.55 50.2537 167.179 49.6715C165.414 49.3656 163.369 49.6399 162.239 51.0293C161.618 51.793 161.352 52.8055 160.725 53.5554C159.518 55.0119 157.339 55.1915 155.817 56.3184C155.005 56.9105 154.416 57.769 153.841 58.6018C153.219 59.5037 152.579 60.4431 152.381 61.5207C151.986 63.6738 153.41 65.7263 153.673 67.8992C154.266 72.7601 149.05 77.0723 150.036 81.868C150.611 84.6645 153.197 86.6341 155.872 87.6328C156.815 87.986 157.892 88.3373 158.332 89.2412C158.53 89.6359 158.564 90.0918 158.749 90.4905C159.374 91.8206 161.427 91.872 162.529 90.9029C163.632 89.9339 163.98 88.3669 164.11 86.9045C164.64 80.5181 162.079 74.2087 162.377 67.8065C162.466 65.8704 163.011 63.6738 164.748 62.7976C167.086 61.6134 169.898 63.587 172.47 63.2101C173.688 66.1687 173.946 69.434 173.209 72.5469C172.8 74.2501 172.093 75.902 172.041 77.6584C171.964 80.3326 173.409 82.7759 174.658 85.1402C174.926 85.5823 175.105 86.0723 175.185 86.5828C175.205 87.1008 175.108 87.6167 174.903 88.0926C174.197 89.9892 172.98 91.7496 172.842 93.7685C172.801 94.0042 172.854 94.2464 172.99 94.4435C173.129 94.575 173.309 94.6557 173.5 94.6724C175.634 95.0375 177.479 93.1488 178.521 91.2523C179.682 89.1575 180.358 86.8296 180.5 84.4396C180.716 80.4214 179.273 76.4684 179.362 72.4463C179.465 67.8736 181.534 63.2693 180.323 58.8584Z" fill="#3E373A"/>
<path d="M175.958 146.241L183.796 146.492L182.672 140.686L176.667 141.256L175.958 146.241Z" fill="#C3C7D9"/>
<path d="M200.246 132.48C199.718 133.137 197.677 134.321 197.48 134.716C197.282 135.111 194.846 136.295 193.593 136.492C192.34 136.689 188.39 137.546 187.665 138.006C187.145 138.337 182.974 139.387 180.234 139.969C179.491 140.145 178.74 140.28 177.983 140.374C176.798 140.439 163.824 136.032 163.824 136.032L166.325 133.467L166.463 133.419C167.171 133.18 170.439 132.077 172.253 131.552C174.296 130.96 176.667 128.527 176.667 128.527C176.667 128.527 180.157 127.343 180.619 127.21C181.081 127.078 179.433 122.606 179.433 122.606C179.433 122.606 187.007 121.556 189.971 120.666C192.935 119.776 199.786 120.106 201.036 123.593C202.287 127.08 200.781 131.823 200.246 132.48Z" fill="#4B4B5B"/>
<path d="M165.732 143.597C165.732 143.597 164.219 145.176 162.703 145.045C161.188 144.915 155.888 145.44 155.888 145.44C154.928 145.823 154.029 146.343 153.219 146.985C151.98 147.96 151.322 147.183 151.199 147.017L151.178 146.985C150.518 149.06 149.004 147.479 149.004 147.479C149.004 147.479 149.662 141.163 149.46 140.374C149.259 139.585 150.763 138.229 150.763 138.229L152.541 137.777L157.046 136.624L163.501 138.86L165.732 143.597Z" fill="#E7C7CA"/>
<path opacity="0.1" d="M152.533 137.777L151.199 147.017L151.178 146.985C150.518 149.06 149.004 147.479 149.004 147.479C149.004 147.479 149.662 141.163 149.46 140.374C149.259 139.585 150.763 138.229 150.763 138.229L152.533 137.777Z" fill="black"/>
<path opacity="0.1" d="M161.856 111.493C161.856 111.493 165.345 112.677 168.376 111.493H161.856Z" fill="black"/>
<path opacity="0.1" d="M173.768 113.731C173.768 113.731 175.217 114.453 176.337 113.731H173.768Z" fill="black"/>
<path opacity="0.1" d="M173.768 115.444C173.768 115.444 176.205 115.77 176.667 115.113L173.768 115.444Z" fill="black"/>
<path opacity="0.1" d="M172.978 119.125C172.978 119.125 177.554 118.533 178.69 117.743L172.978 119.125Z" fill="black"/>
<path opacity="0.1" d="M159.014 117.743C159.014 117.743 161.583 119.19 163.494 119.125L159.014 117.743Z" fill="black"/>
<path opacity="0.1" d="M180.232 139.969C179.489 140.145 178.738 140.28 177.981 140.374C176.796 140.439 163.822 136.032 163.822 136.032L166.323 133.467L166.461 133.419C166.857 133.697 167.181 133.936 167.412 134.118C168.501 134.974 169.552 133.855 169.947 133.855C170.342 133.855 173.766 136.683 173.766 136.683C173.766 136.683 176.928 137.408 177.456 138.065C177.983 138.722 179.827 138.592 180.155 139.052C180.253 139.194 180.265 139.543 180.232 139.969Z" fill="black"/>
<path d="M155.888 122.874C155.888 122.874 152.691 123.058 150.848 122.282C149.004 121.507 142.879 119.717 141.1 120.974C139.322 122.231 135.04 123.342 137.016 128.343C138.992 133.344 139.915 133.474 139.915 133.474C140.526 133.932 141.06 134.485 141.496 135.112C142.088 136.034 147.621 138.138 149.004 138.138C150.387 138.138 152.824 138.138 156.248 140.506C159.672 142.874 162.768 143.139 162.768 143.139C162.768 143.139 167.115 144.915 168.469 145.31C169.822 145.705 176.007 147.414 177.457 146.889C178.908 146.364 179.829 143.072 179.829 143.072C179.829 143.072 180.487 140.112 180.157 139.652C179.827 139.192 177.983 139.322 177.457 138.665C176.932 138.008 173.768 137.283 173.768 137.283C173.768 137.283 170.352 134.453 169.957 134.453C169.562 134.453 168.51 135.57 167.422 134.716C165.253 133.111 162.974 131.661 160.603 130.374C158.101 129.058 155.888 122.874 155.888 122.874Z" fill="#4B4B5B"/>
<path opacity="0.1" d="M149.461 124.783C150.03 124.667 150.618 124.683 151.18 124.832C151.742 124.98 152.262 125.256 152.699 125.637C154.28 126.954 159.599 129.596 159.599 129.596" fill="black"/>
<path opacity="0.1" d="M188.983 124.7C188.983 124.7 181.935 125.766 180.619 127.212L188.983 124.7Z" fill="black"/>
<path d="M197.084 146.492H196.774C195.66 146.453 191.884 146.334 191.157 146.492C190.301 146.689 178.971 146.492 178.971 146.492L181.186 146.032C181.186 146.032 180.364 143.155 180.886 142.916C180.886 142.916 177.922 140.966 180.157 139.65C182.391 138.333 184.8 138.888 184.8 138.888L190.41 136.989L191.487 136.624C191.487 136.624 197.81 136.954 199.521 141.296C201.232 145.637 197.084 146.492 197.084 146.492Z" fill="#E7C7CA"/>
<path opacity="0.1" d="M197.084 146.492H196.774C198.614 144.976 202.775 140.362 190.41 136.999L191.487 136.634C191.487 136.634 197.81 136.964 199.521 141.305C201.232 145.647 197.084 146.492 197.084 146.492Z" fill="black"/>
<path d="M185.46 141.377C185.651 141.377 185.806 141.222 185.806 141.031C185.806 140.84 185.651 140.686 185.46 140.686C185.269 140.686 185.114 140.84 185.114 141.031C185.114 141.222 185.269 141.377 185.46 141.377Z" fill="#4B4B5B"/>
<path d="M183.45 141.947C183.641 141.947 183.796 141.792 183.796 141.602C183.796 141.411 183.641 141.256 183.45 141.256C183.26 141.256 183.105 141.411 183.105 141.602C183.105 141.792 183.26 141.947 183.45 141.947Z" fill="#4B4B5B"/>
<path opacity="0.1" d="M173.66 68.6176C173.736 66.4468 173.35 64.2846 172.526 62.2746C169.957 62.6574 167.143 60.678 164.804 61.8621C163.073 62.7384 162.529 64.9349 162.433 66.871C162.409 67.3821 162.405 67.8933 162.415 68.4044C162.415 68.2229 162.415 68.0393 162.433 67.8578C162.523 65.9217 163.067 63.7251 164.804 62.8489C167.143 61.6648 169.953 63.6383 172.526 63.2614C173.224 64.9639 173.608 66.7785 173.66 68.6176Z" fill="black"/>
<path opacity="0.1" d="M153.754 68.2564C153.788 67.8264 153.779 67.3941 153.728 66.9657C153.519 65.229 152.569 63.5692 152.397 61.8759C152.175 63.9185 153.478 65.8803 153.728 67.9525C153.754 68.0591 153.754 68.1538 153.754 68.2564Z" fill="black"/>
<path opacity="0.1" d="M164.165 85.9671C164.043 87.4315 163.697 88.9965 162.585 89.9675C161.472 90.9385 159.423 90.8852 158.805 89.555C158.607 89.1603 158.577 88.7005 158.386 88.3057C157.947 87.4019 156.868 87.0506 155.926 86.6973C153.248 85.6967 150.666 83.737 150.091 80.9325C150.039 80.6785 150.004 80.4214 149.986 80.1629C149.938 80.7504 149.973 81.3418 150.091 81.9193C150.666 84.7159 153.252 86.6835 155.926 87.6841C156.868 88.0373 157.947 88.3886 158.386 89.2925C158.583 89.6872 158.617 90.1431 158.805 90.5418C159.427 91.872 161.48 91.9233 162.585 90.9543C163.689 89.9852 164.033 88.4182 164.165 86.9539C164.226 86.1831 164.246 85.4098 164.227 84.6369C164.227 85.0849 164.201 85.527 164.165 85.9671Z" fill="black"/>
<path opacity="0.1" d="M179.427 71.5108C179.427 71.797 179.427 72.0812 179.427 72.3654C179.538 68.6945 180.886 65.004 180.753 61.4102C180.651 64.7336 179.503 68.1321 179.427 71.5108Z" fill="black"/>
<path opacity="0.1" d="M175.187 86.3598C175.236 86.1256 175.251 85.8858 175.233 85.6473C175.153 85.1366 174.974 84.6464 174.705 84.2047C173.563 82.0338 172.261 79.8116 172.107 77.4018C172.107 77.5045 172.093 77.5992 172.091 77.7097C172.012 80.3819 173.456 82.8271 174.705 85.1915C174.917 85.5577 175.079 85.9506 175.187 86.3598Z" fill="black"/>
<path opacity="0.1" d="M180.564 83.5041C180.416 85.8951 179.735 88.2228 178.57 90.3168C177.527 92.2134 175.683 94.102 173.547 93.7369C173.356 93.7205 173.176 93.639 173.037 93.506C172.997 93.4608 172.966 93.4087 172.944 93.3521C172.921 93.506 172.901 93.6619 172.889 93.8198C172.848 94.0549 172.902 94.2966 173.037 94.4928C173.176 94.6257 173.356 94.7072 173.547 94.7237C175.683 95.0888 177.527 93.2001 178.57 91.3035C179.735 89.2096 180.416 86.8818 180.564 84.4908C180.587 84.029 180.589 83.5692 180.576 83.1094C180.572 83.2416 180.572 83.3718 180.564 83.5041Z" fill="black"/>
<path opacity="0.1" d="M180.886 142.916C180.886 142.916 185.887 145.012 189.185 140.374" stroke="black" stroke-miterlimit="10"/>
<path opacity="0.1" d="M181.87 146.579C181.87 146.579 185.954 143.926 191.157 146.492" stroke="black" stroke-miterlimit="10"/>
<path opacity="0.1" d="M154.531 145.977C154.531 145.977 156.246 142.113 160.826 145.059" stroke="black" stroke-miterlimit="10"/>
<path opacity="0.1" d="M148.97 88.8307L152.468 85.673C152.468 85.673 166.029 84.7849 166.59 89.3892C166.59 89.3892 171.397 83.9304 181.508 85.1461L185.786 88.5485L173.962 93.731L162.472 97.7117L154.009 93.9284L148.97 88.8307Z" fill="black"/>
<path d="M148.97 89.0281L152.468 85.8704C152.468 85.8704 166.029 84.9823 166.59 89.5866C166.59 89.5866 171.397 84.1277 181.508 85.3434L185.786 88.7458L173.962 93.9284L162.472 97.909L154.009 94.1257L148.97 89.0281Z" fill="#D5D6DB"/>
<path opacity="0.1" d="M147.423 89.4228L148.97 107.909L165.371 108.732L164.659 90.3247L164.646 90.0149L147.423 89.4228Z" fill="black"/>
<path d="M147.423 89.0281L148.97 107.514L165.371 108.337L164.659 89.93L164.646 89.6201L147.423 89.0281Z" fill="#D55104"/>
<path opacity="0.1" d="M186.537 89.0281L169.619 91.5621V110.131L186.152 107.745L186.537 89.0281Z" fill="black"/>
<path d="M186.537 88.6333L169.619 91.1674V109.737L186.152 107.351L186.537 88.6333Z" fill="#D55104"/>
<path opacity="0.3" d="M182.548 93.1647L173.409 94.1791L173.608 97.2894L182.542 96.3144L182.548 93.1647Z" fill="white"/>
<path d="M149.86 117.414L150.79 119.914C150.79 119.914 152.173 121.098 153.687 120.506C155.201 119.914 156.521 119.62 157.179 119.044C157.836 118.468 158.759 115.572 158.759 115.572C158.759 115.572 159.682 112.415 160.603 111.625C161.524 110.836 163.962 99.9596 160.603 101.023C157.244 102.087 154.675 111.955 154.675 111.955C154.675 111.955 154.082 112.677 153.227 112.744C152.371 112.811 150.658 112.612 150.328 113.336C149.998 114.061 148.872 115.967 149.86 117.414Z" fill="#BE6F72"/>
<path opacity="0.1" d="M169.619 91.5601C168.753 91.7551 167.853 91.7449 166.991 91.5304C166.13 91.3159 165.331 90.903 164.657 90.3247L165.371 108.73C165.371 108.73 167.05 110.546 169.619 110.131V91.5601Z" fill="black"/>
<path d="M169.619 91.1654C168.753 91.3603 167.853 91.3502 166.991 91.1356C166.13 90.9211 165.331 90.5082 164.657 89.93L165.371 108.335C165.371 108.335 167.05 110.151 169.619 109.737V91.1654Z" fill="#D55104"/>
<path opacity="0.1" d="M169.619 91.1654C168.753 91.3603 167.853 91.3502 166.991 91.1356C166.13 90.9211 165.331 90.5082 164.657 89.93L165.371 108.335C165.371 108.335 167.05 110.151 169.619 109.737V91.1654Z" fill="black"/>
<path opacity="0.1" d="M170.014 89.0912C170.014 89.0912 176.896 86.9894 178.69 87.2854L170.014 89.0912Z" fill="black"/>
<path opacity="0.1" d="M162.316 88.1735C162.316 88.1735 155.645 86.5947 154.531 87.0427L162.316 88.1735Z" fill="black"/>
<path opacity="0.1" d="M174.353 89.3537C174.353 89.3537 178.955 87.6683 180.619 88.4695L174.353 89.3537Z" fill="black"/>
<path opacity="0.1" d="M172.036 131.633C172.749 131.098 173.508 130.627 174.304 130.226C175.489 129.656 177.663 128.175 177.663 128.175" fill="black"/>
<path opacity="0.1" d="M154.531 111.493C154.531 111.493 151.644 113.851 150.776 114.059C149.909 114.266 149.374 116.105 149.374 116.105" fill="black"/>
<path d="M184.84 117.062L183.919 119.569C183.919 119.569 182.536 120.753 181.02 120.161C179.505 119.569 178.189 119.275 177.529 118.698C176.869 118.122 175.948 115.227 175.948 115.227C175.948 115.227 175.027 112.069 174.104 111.28C173.182 110.49 170.745 99.6142 174.104 100.678C177.463 101.742 180.032 111.609 180.032 111.609C180.032 111.609 180.625 112.332 181.48 112.399C182.336 112.466 184.049 112.267 184.379 112.991C184.709 113.715 185.828 115.622 184.84 117.062Z" fill="#BE6F72"/>
<path opacity="0.1" d="M183.225 112.452C183.225 112.452 185.112 113.664 185.104 115.112L183.225 112.452Z" fill="black"/>
<path d="M167.214 77.3269C172.089 77.3269 176.041 73.3799 176.041 68.511C176.041 63.6422 172.089 59.6952 167.214 59.6952C162.34 59.6952 158.388 63.6422 158.388 68.511C158.388 73.3799 162.34 77.3269 167.214 77.3269Z" fill="#BE6F72"/>
<path d="M161.672 66.1447C162.743 65.977 163.681 65.3553 164.705 64.9981C166.995 64.1949 169.528 64.7455 171.846 65.4698C172.735 65.748 173.638 66.0618 174.571 66.0618C175.503 66.0618 176.493 65.6809 176.969 64.8777C177.408 64.1396 177.323 63.1805 176.954 62.4049C176.584 61.6292 175.966 61.0056 175.341 60.4175C173.286 58.4795 170.737 56.6677 167.918 56.8651C166.783 56.946 165.699 57.3506 164.655 57.7986C163.342 58.364 162.063 59.0072 160.826 59.7248C159.876 60.2754 158.115 61.0115 157.568 62.018C156.323 64.2856 159.735 66.4487 161.672 66.1447Z" fill="#3E373A"/>
<path opacity="0.1" d="M176.969 64.0488C176.493 64.8521 175.503 65.2329 174.571 65.2329C173.638 65.2329 172.735 64.931 171.844 64.6527C169.526 63.9284 166.995 63.3758 164.703 64.181C163.681 64.5383 162.741 65.1678 161.67 65.3257C160.109 65.5704 157.595 64.2126 157.323 62.4858C157.016 64.481 159.931 66.1901 161.67 65.9178C162.741 65.75 163.681 65.1283 164.703 64.7731C166.995 63.9679 169.526 64.5205 171.844 65.2448C172.735 65.5231 173.636 65.8369 174.571 65.825C175.505 65.8132 176.493 65.4461 176.969 64.6409C177.216 64.2028 177.313 63.6964 177.246 63.1982C177.215 63.4981 177.121 63.7881 176.969 64.0488Z" fill="black"/>
<defs>
<filter id="filter0_d" x="0" y="0" width="262" height="262" filterUnits="userSpaceOnUse" color-interpolation-filters="sRGB">
<feFlood flood-opacity="0" result="BackgroundImageFix"/>
<feColorMatrix in="SourceAlpha" type="matrix" values="0 0 0 0 0 0 0 0 0 0 0 0 0 0 0 0 0 0 127 0"/>
<feMorphology radius="6" operator="dilate" in="SourceAlpha" result="effect1_dropShadow"/>
<feOffset/>
<feGaussianBlur stdDeviation="5"/>
<feColorMatrix type="matrix" values="0 0 0 0 0 0 0 0 0 0 0 0 0 0 0 0 0 0 0.25 0"/>
<feBlend mode="normal" in2="BackgroundImageFix" result="effect1_dropShadow"/>
<feBlend mode="normal" in="SourceGraphic" in2="effect1_dropShadow" result="shape"/>
</filter>
<linearGradient id="paint0_linear" x1="169.012" y1="148.055" x2="169.012" y2="48.9985" gradientUnits="userSpaceOnUse">
<stop stop-color="#808080" stop-opacity="0.25"/>
<stop offset="0.54" stop-color="#808080" stop-opacity="0.12"/>
<stop offset="1" stop-color="#808080" stop-opacity="0.1"/>
</linearGradient>
</defs>
</svg>
