<svg width="262" height="262" viewBox="0 0 262 262" fill="none" xmlns="http://www.w3.org/2000/svg">
<g opacity="0.5" filter="url(#filter0_d)">
<circle cx="131" cy="131" r="115" fill="white"/>
</g>
<path d="M79.0531 179.37L84.1571 180.008L87.1337 165.334L81.3914 161.93L73.9492 170.013L79.0531 179.37Z" fill="#EFB7B9"/>
<path opacity="0.03" d="M79.0531 179.37L84.1571 180.008L87.1337 165.334L81.3914 161.93L73.9492 170.013L79.0531 179.37Z" fill="black"/>
<g opacity="0.1">
<path opacity="0.1" d="M59.2026 176.468C59.4249 177.835 60.2165 178.875 60.9678 179.83L69.9089 191.165C70.6276 192.077 71.4 193.026 72.366 193.273C74.3842 193.808 76.0076 191.216 77.7326 189.7C83.8658 184.311 92.2472 192.516 99.1797 189.378C101.953 188.123 104.199 185.141 107.026 184.131C114.511 181.447 120.853 193.302 128.581 193.905C131.118 194.097 133.608 193.054 136.033 192.018L152.205 185.095C153.328 184.614 154.471 184.136 155.655 184.108C157.645 184.073 159.498 185.353 161.371 186.275C168.909 189.99 177.279 187.985 185.022 185.171C192.765 182.358 200.564 178.737 208.568 179.337C210.651 179.494 213.403 179.362 213.972 176.629C214.312 175.004 209.733 176.708 208.673 175.832C207.613 174.956 210.135 171.301 208.899 171.145C201.706 170.245 194.377 170.22 187.347 172.487C183.705 173.66 180.123 175.446 176.383 175.812C172.485 176.196 168.608 175.015 164.78 173.942C155.088 171.224 145.231 169.15 135.335 169.572C117.748 170.339 100.425 179.013 82.9266 176.499C77.7276 175.73 72.7055 174.048 68.0919 171.531C65.7306 170.256 65.836 174.77 63.4268 176.29C62.6429 176.784 60.5902 172.173 59.9769 173.06C59.6275 173.548 59.379 174.101 59.2461 174.686C59.1131 175.271 59.0983 175.877 59.2026 176.468Z" fill="#ED6515"/>
</g>
<path d="M210.028 154.613L182.074 118.005C179.891 107.728 176.614 107.728 176.614 107.728C154.338 104.73 148.224 100.876 148.224 100.876L143.241 98.9249L142.825 98.6795C142.806 98.5703 142.785 98.461 142.766 98.3479C142.747 98.2349 142.727 98.0854 142.712 97.9531C148.155 94.6817 152.082 89.3901 153.637 83.2334C153.677 83.0724 153.714 82.9076 153.752 82.7447C154.822 82.2319 155.724 81.4273 156.357 80.4236C158.498 76.9143 156.464 72.4715 156.51 68.3833C156.539 65.7997 157.43 63.2679 157.328 60.6861C157.244 58.5242 156.47 56.4485 155.624 54.4513C155.214 53.4796 154.762 52.4868 153.976 51.7681C151.893 49.8763 148.52 50.6871 145.844 49.7556C142.382 48.55 140.771 44.7934 138.77 41.7728C138.003 40.6075 136.608 39.377 135.348 40.0153C133.871 40.7628 134.271 43.3215 132.778 44.0402C131.874 44.4753 130.768 43.9271 130.122 43.1681C129.476 42.4092 129.106 41.4566 128.47 40.6899C127.899 40.0266 127.16 39.5297 126.33 39.2517C125.501 38.9737 124.612 38.925 123.757 39.1106C123.418 39.1655 123.104 39.3258 122.862 39.5687C122.384 40.1245 122.683 40.9525 122.716 41.677C122.829 44.1169 119.841 45.4719 117.372 45.7307C114.904 45.9894 111.994 46.0201 110.517 47.9846C109.735 49.0254 109.568 50.3804 109.041 51.5649C107.818 54.3114 104.861 55.816 102.262 57.3934C99.6627 58.9708 96.9871 61.2707 97.0101 64.2683C97.0331 67.1433 99.5707 69.472 100.017 72.3182C100.255 73.8266 99.885 75.3848 100.18 76.8855C100.723 79.6378 103.295 81.4854 105.667 83.0475C105.828 83.1529 105.991 83.2583 106.158 83.358C106.2 83.5266 106.242 83.6934 106.288 83.8601C107.2 87.0693 108.766 90.0547 110.889 92.6278C113.013 95.2009 115.646 97.3059 118.624 98.8099C118.662 98.9709 118.699 99.1338 118.735 99.3005C118.848 99.8142 118.954 100.349 119.047 100.897L118.975 100.916V100.863L91.3656 107.902C91.1994 107.843 91.022 107.82 90.8462 107.837C89.7154 107.745 86.1792 108.964 82.0527 125.495L64.366 156.753C64.366 156.753 54.1024 166.603 61.9644 174.961C65.9721 179.218 70.4915 180.248 73.9587 180.234C75.9722 180.263 77.974 179.924 79.8658 179.234C79.8658 179.234 79.724 179.015 79.5055 178.628L81.8437 178.914C86.4437 184.027 94.2789 182.231 94.2789 182.231C94.2789 182.231 105.424 182.105 105.834 176.276L125.865 182.421L125.945 183.515H136.464L136.447 182.818L158.576 176.152C160.301 179.341 164.518 180.918 164.518 180.918C164.518 180.918 177.505 181.465 181.587 179.099C183.303 178.093 185.171 177.374 187.119 176.97L187.232 176.959L187.205 176.985L212.209 174.302C223.567 164.46 210.028 154.613 210.028 154.613ZM84.1686 163.318L83.6185 163C84.6014 162.624 85.612 162.326 86.6411 162.107L91.5055 156.102L92.3469 162.024C89.5561 161.381 86.6245 161.844 84.1686 163.318ZM178.25 163.27C176.439 161.902 174.224 161.177 171.954 161.21L172.146 146.632C173.972 147.799 175.506 149.087 175.96 150.329C177.271 153.971 183.603 159.749 183.603 159.749L180.315 162.452L179.803 162.871C179.665 162.904 179.527 162.937 179.389 162.973L178.25 163.27Z" fill="url(#paint0_linear)"/>
<path d="M147.523 107.278L135.189 118.337C135.189 118.337 111.371 123.653 117.326 116.209C120.7 111.992 120.251 105.593 119.228 100.836C118.77 98.6785 118.134 96.563 117.326 94.5109C117.326 94.5109 147.954 76.0173 143.701 90.0547C142.44 94.2176 142.264 97.428 142.637 99.8813C143.531 105.7 147.523 107.278 147.523 107.278Z" fill="#EFB7B9"/>
<path opacity="0.1" d="M143.701 90.0547C142.44 94.2176 142.264 97.428 142.637 99.8812C139.148 102.042 135.161 103.265 131.06 103.433C126.96 103.601 122.886 102.707 119.232 100.84C118.774 98.6823 118.138 96.5668 117.33 94.5147C117.33 94.5147 147.954 76.0173 143.701 90.0547Z" fill="black"/>
<path d="M153.909 79.2066C153.909 83.9169 152.512 88.5215 149.896 92.4381C147.279 96.3548 143.56 99.4076 139.208 101.211C134.856 103.014 130.068 103.486 125.448 102.568C120.828 101.649 116.584 99.3818 113.253 96.0518C109.921 92.7218 107.652 88.4787 106.732 83.8591C105.812 79.2395 106.282 74.4508 108.083 70.0985C109.885 65.7461 112.936 62.0256 116.852 59.4073C120.767 56.789 125.371 55.3905 130.081 55.3886C133.213 55.3782 136.315 55.9871 139.21 57.1803C142.105 58.3735 144.735 60.1273 146.95 62.341C149.164 64.5546 150.919 67.1844 152.114 70.0788C153.308 72.9733 153.918 76.0754 153.909 79.2066Z" fill="#EFB7B9"/>
<path d="M113.715 110.043V153.637L155.609 150.235L148.592 105.79L130.091 116.847L113.715 110.043Z" fill="#E1E7EF"/>
<path opacity="0.1" d="M136.47 136.838L131.807 123.653H131.998C136.889 118.337 134.762 115.147 134.762 115.147H127.973C123.651 118.214 126.651 122.187 127.669 123.331L125.633 136.838H136.47Z" fill="black"/>
<path d="M136.47 136.412L131.807 123.228H131.998C136.889 117.911 134.762 114.722 134.762 114.722H127.973C123.651 117.788 126.651 121.762 127.669 122.906L125.633 136.412H136.47Z" fill="#444053"/>
<path opacity="0.1" d="M142.695 100.635C142.695 100.635 141.353 106.852 132.006 115.145C132.006 115.145 134.881 116.104 135.302 123.759L138.812 128.55C138.812 128.55 141.576 118.555 146.467 115.153C151.358 111.751 146.467 102.819 146.467 102.819L142.695 100.635Z" fill="black"/>
<path d="M142.695 100.213C142.695 100.213 141.353 106.43 132.006 114.724C132.006 114.724 134.881 115.682 135.302 123.337L138.812 128.129C138.812 128.129 141.576 118.133 146.467 114.731C151.358 111.329 146.467 102.398 146.467 102.398L142.695 100.213Z" fill="#E1E7EF"/>
<path opacity="0.1" d="M130.082 115.145C130.082 115.145 126.057 118.337 125.838 123.441C125.62 128.544 123.5 128.544 123.5 128.544C123.5 128.544 118.183 112.171 116.483 110.681C114.783 109.192 119.55 102.911 119.55 102.911C119.55 102.911 122.223 111.743 130.082 115.145Z" fill="black"/>
<path d="M130.082 114.722C130.082 114.722 126.057 117.911 125.838 123.021C125.62 128.13 123.5 128.125 123.5 128.125C123.5 128.125 118.181 111.743 116.473 110.256C114.766 108.769 119.54 102.486 119.54 102.486C119.54 102.486 122.223 111.318 130.082 114.722Z" fill="#E1E7EF"/>
<path opacity="0.1" d="M142.425 100.261L147.741 102.388C147.741 102.388 153.696 106.221 175.387 109.194C175.387 109.194 178.576 109.194 180.704 119.402L207.92 155.766C207.92 155.766 221.104 165.541 210.047 175.331L185.706 177.99C185.706 177.99 199.741 164.592 178.476 164.167L182.406 160.868C182.406 160.868 176.238 155.119 174.963 151.511C173.689 147.904 163.272 143.856 163.272 143.856L164.548 174.478L145.401 177.453L142.641 120.472C142.508 117.784 142.663 115.09 143.101 112.435C143.822 108.113 144.583 101.267 142.425 100.261Z" fill="black"/>
<path d="M142.637 100.261L147.954 102.388C147.954 102.388 153.909 106.221 175.6 109.194C175.6 109.194 178.789 109.194 180.916 119.402L208.133 155.766C208.133 155.766 221.317 165.541 210.26 175.331L185.919 177.99C185.919 177.99 199.954 164.592 178.689 164.167L182.624 160.87C182.624 160.87 176.456 155.12 175.182 151.513C173.907 147.906 163.49 143.858 163.49 143.858L164.767 174.48L145.606 177.453L142.846 120.472C142.713 117.784 142.868 115.09 143.306 112.435C144.035 108.113 144.796 101.267 142.637 100.261Z" fill="#67647E"/>
<path opacity="0.1" d="M119.67 102.386L92.6632 109.413C92.6632 109.413 88.6229 106.862 83.7317 126.854L66.5069 157.903C66.5069 157.903 56.5117 167.678 64.1686 175.979C71.8255 184.28 81.3991 180.219 81.3991 180.219C81.3991 180.219 72.6804 166.611 87.9923 163.207L93.7422 155.977L119.686 158.954L119.032 121.526L119.759 117.164C120.544 112.449 120.544 107.636 119.759 102.921L119.67 102.386Z" fill="black"/>
<path d="M119.458 102.386L92.4503 109.413C92.4503 109.413 88.4101 106.862 83.5188 126.854L66.294 157.903C66.294 157.903 56.2911 167.678 63.9577 175.966C71.6242 184.253 81.1824 180.219 81.1824 180.219C81.1824 180.219 72.4637 166.611 87.7756 163.207L93.5255 155.977L119.469 158.954L118.819 121.526L119.54 117.164C120.326 112.449 120.326 107.636 119.54 102.921L119.458 102.386Z" fill="#67647E"/>
<path d="M92.8759 123.228L90.3229 125.141L128.815 134.923V131.096L92.8759 123.228Z" fill="#E4E6ED"/>
<path d="M167.306 122.59L169.857 124.504L128.815 134.923V131.096L167.306 122.59Z" fill="#E4E6ED"/>
<path d="M87.9846 123.228L123.711 131.521L126.262 183.41L95.0014 173.627L87.9846 123.228Z" fill="#ED6515"/>
<path d="M171.559 123.228L133.493 131.947L135.619 184.048L170.921 173.202L171.559 123.228Z" fill="#ED6515"/>
<path d="M122.434 131.521C122.434 131.521 128.671 135.354 135.228 131.521L136.504 184.474H126.264L122.434 131.521Z" fill="#ED6515"/>
<path opacity="0.1" d="M122.434 131.521C122.434 131.521 128.671 135.354 135.228 131.521L136.504 184.474H126.264L122.434 131.521Z" fill="black"/>
<path d="M93.7269 122.59V124.079L128.815 131.096C128.815 131.096 110.952 124.502 93.7269 122.59Z" fill="#D8D9E5"/>
<path d="M166.668 121.739V123.228L128.815 131.096C128.815 131.096 149.44 123.653 166.668 121.739Z" fill="#D8D9E5"/>
<path d="M178.3 164.071L177.19 164.37C177.19 164.37 169.963 158.045 160.749 167.628C151.536 177.212 163.816 181.902 163.816 181.902C163.816 181.902 176.466 182.444 180.439 180.094C182.149 179.069 184.022 178.343 185.976 177.949C187.171 177.715 188.259 177.101 189.077 176.2C189.821 175.385 190.374 174.414 190.694 173.358C191.014 172.302 191.095 171.188 190.929 170.097C190.714 168.665 190.084 167.328 189.116 166.25C188.149 165.173 186.886 164.404 185.486 164.037C183.128 163.424 180.652 163.436 178.3 164.071Z" fill="#EFB7B9"/>
<path d="M84.5826 165.121C84.5826 165.121 93.0886 157.466 103.509 170.225C113.93 182.984 95.4269 183.203 95.4269 183.203C95.4269 183.203 85.424 185.536 81.6042 177.242C77.7844 168.949 84.5826 165.121 84.5826 165.121Z" fill="#EFB7B9"/>
<path opacity="0.1" d="M179.201 163.552C179.201 163.552 189.089 166.438 186.969 177.848L192.945 177.196L194.206 171.395L191.655 163.314L186.764 161.397L179.201 163.552Z" fill="black"/>
<path d="M179.414 163.552C179.414 163.552 189.302 166.438 187.182 177.848L193.158 177.196L194.419 171.395L191.868 163.314L186.977 161.397L179.414 163.552Z" fill="#67647E"/>
<path opacity="0.1" d="M153.909 79.2066C153.911 81.1129 153.683 83.0126 153.231 84.8645C151.736 85.5746 150.063 85.8203 148.428 85.5698C145.61 85.1385 143.122 83.4615 141.062 81.4931C139.002 79.5247 137.273 77.2344 135.285 75.1874C133.484 73.3321 131.26 71.5975 128.677 71.5228C126.331 71.4538 124.194 72.7648 121.932 73.3858C119.563 74.0374 114.791 72.2588 113.635 74.2674C112.956 75.4481 113.196 78.0451 112.795 79.4423C112.36 80.9685 111.747 82.4384 110.969 83.8218C110.394 84.8319 109.549 85.9033 108.389 85.8937C107.937 85.871 107.498 85.731 107.116 85.4874C106.22 82.2117 106.034 78.7822 106.571 75.4288C107.109 72.0754 108.357 68.8758 110.233 66.0444C112.108 63.213 114.567 60.8154 117.445 59.0124C120.323 57.2094 123.554 56.0427 126.92 55.5905C130.286 55.1383 133.709 55.4111 136.961 56.3906C140.213 57.3701 143.218 59.0336 145.774 61.2696C148.33 63.5056 150.379 66.2624 151.782 69.355C153.186 72.4477 153.911 75.8046 153.911 79.2008L153.909 79.2066Z" fill="black"/>
<path d="M121.93 72.9641C124.194 72.3431 126.338 71.0321 128.675 71.1011C131.258 71.1759 133.484 72.9104 135.283 74.7657C137.269 76.8108 138.998 79.1012 141.06 81.0715C143.122 83.0418 145.608 84.7131 148.426 85.1481C151.243 85.5832 154.415 84.5233 155.877 82.0815C157.961 78.5971 155.983 74.1831 156.027 70.1237C156.056 67.5573 156.922 65.0427 156.824 62.4782C156.742 60.3316 155.989 58.2616 155.166 56.2856C154.766 55.3273 154.327 54.3345 153.56 53.6234C151.531 51.7451 148.247 52.5501 145.641 51.6243C142.271 50.4264 140.7 46.6948 138.752 43.6952C138.001 42.5453 136.644 41.3167 135.421 41.9492C133.982 42.6928 134.373 45.2343 132.918 45.9473C132.036 46.3785 130.959 45.8342 130.331 45.081C129.702 44.3277 129.34 43.3809 128.723 42.62C128.173 41.9619 127.454 41.4675 126.643 41.1906C125.831 40.9138 124.96 40.8652 124.123 41.0503C123.791 41.1052 123.486 41.2643 123.251 41.5045C122.787 42.0565 123.076 42.8787 123.109 43.5994C123.22 46.022 120.316 47.3675 117.905 47.6243C115.494 47.8812 112.667 47.9118 111.23 49.8649C110.463 50.8979 110.306 52.2434 109.792 53.4202C108.6 56.1495 105.721 57.6368 103.189 59.2104C100.657 60.7839 98.0527 63.0628 98.0757 66.0393C98.0987 68.9008 100.567 71.2142 101.004 74.0374C101.234 75.5362 100.876 77.0849 101.163 78.5741C101.69 81.3072 104.196 83.1414 106.507 84.6939C107.082 85.0772 107.695 85.4778 108.385 85.4835C109.535 85.4931 110.396 84.4217 110.965 83.4117C111.743 82.0282 112.356 80.5583 112.792 79.0322C113.192 77.6311 112.953 75.0341 113.631 73.8573C114.789 71.8371 119.561 73.6138 121.93 72.9641Z" fill="#585268"/>
<defs>
<filter id="filter0_d" x="0" y="0" width="262" height="262" filterUnits="userSpaceOnUse" color-interpolation-filters="sRGB">
<feFlood flood-opacity="0" result="BackgroundImageFix"/>
<feColorMatrix in="SourceAlpha" type="matrix" values="0 0 0 0 0 0 0 0 0 0 0 0 0 0 0 0 0 0 127 0"/>
<feMorphology radius="6" operator="dilate" in="SourceAlpha" result="effect1_dropShadow"/>
<feOffset/>
<feGaussianBlur stdDeviation="5"/>
<feColorMatrix type="matrix" values="0 0 0 0 0 0 0 0 0 0 0 0 0 0 0 0 0 0 0.25 0"/>
<feBlend mode="normal" in2="BackgroundImageFix" result="effect1_dropShadow"/>
<feBlend mode="normal" in="SourceGraphic" in2="effect1_dropShadow" result="shape"/>
</filter>
<linearGradient id="paint0_linear" x1="137.875" y1="183.515" x2="137.875" y2="38.9956" gradientUnits="userSpaceOnUse">
<stop stop-color="#808080" stop-opacity="0.25"/>
<stop offset="0.54" stop-color="#808080" stop-opacity="0.12"/>
<stop offset="1" stop-color="#808080" stop-opacity="0.1"/>
</linearGradient>
</defs>
</svg>
