<svg width="475" height="329" viewBox="0 0 475 329" fill="none" xmlns="http://www.w3.org/2000/svg">
<g clip-path="url(#clip0)">
<path d="M55.3549 284.832C55.3549 284.832 -5.06224 257.064 16.1622 237.808C37.3867 218.552 55.3549 284.832 55.3549 284.832Z" fill="#8D8D8D"/>
<path d="M54.3033 291.311C54.3033 291.311 26.5333 200.216 67.4256 204.573C108.318 208.929 54.3033 291.311 54.3033 291.311Z" fill="#8D8D8D"/>
<path d="M34.0559 283.232L35.2215 298.471L35.2399 298.734C35.2388 301.113 35.3593 303.492 35.6007 305.859C37.1825 321.402 43.9815 328.485 51.9275 328.485C59.8736 328.485 66.3765 321.402 67.9583 305.859C68.1998 303.492 68.3202 301.113 68.3191 298.734L68.3284 298.521L68.333 298.471L69.5031 283.232H34.0559Z" fill="#8D8D8D"/>
<path d="M68.333 298.471L68.3284 298.521L68.3191 298.734C68.3202 301.113 68.1998 303.491 67.9584 305.859H35.6008C35.3593 303.491 35.2389 301.113 35.24 298.734L35.2215 298.471H68.333Z" fill="white"/>
<path d="M449.41 294.151C449.41 294.151 402.635 272.653 419.067 257.744C435.499 242.836 449.41 294.151 449.41 294.151Z" fill="#8D8D8D"/>
<path d="M448.596 299.168C448.596 299.168 427.096 228.64 458.756 232.013C490.415 235.386 448.596 299.168 448.596 299.168Z" fill="#8D8D8D"/>
<path d="M432.92 292.913L433.823 304.71L433.837 304.914C433.836 306.756 433.929 308.598 434.116 310.43C435.341 322.464 440.605 327.948 446.757 327.948C452.909 327.948 457.944 322.464 459.168 310.43C459.355 308.598 459.448 306.756 459.448 304.914L459.455 304.75L459.458 304.71L460.364 292.913H432.92Z" fill="#8D8D8D"/>
<path d="M459.458 304.71L459.455 304.75L459.448 304.914C459.448 306.756 459.355 308.598 459.168 310.43H434.116C433.93 308.598 433.836 306.756 433.837 304.914L433.823 304.71H459.458Z" fill="white"/>
<path d="M157.472 98.0669V77.3419H154.244V98.0669C153.318 98.4408 152.552 99.1246 152.075 100.001C151.599 100.877 151.443 101.892 151.634 102.871C151.824 103.85 152.35 104.732 153.121 105.366C153.892 106 154.859 106.347 155.858 106.347C156.857 106.347 157.825 106 158.595 105.366C159.366 104.732 159.892 103.85 160.083 102.871C160.273 101.892 160.117 100.877 159.641 100.001C159.165 99.1246 158.398 98.4408 157.472 98.0669Z" fill="#8D8D8D"/>
<path d="M165.004 307.219H142.947V39.7451H134.339V307.219H112.283C109.669 307.219 107.08 307.733 104.665 308.732C102.25 309.731 100.056 311.194 98.2078 313.04C96.3595 314.885 94.8933 317.076 93.893 319.487C92.8927 321.898 92.3779 324.482 92.3779 327.092V327.092H184.908V327.092C184.908 324.482 184.394 321.898 183.393 319.487C182.393 317.076 180.927 314.885 179.078 313.04C177.23 311.194 175.036 309.731 172.621 308.732C170.206 307.733 167.618 307.219 165.004 307.219Z" fill="#8D8D8D"/>
<path d="M92.4225 79.4903H184.864L179.211 8.94788C179.004 6.51542 177.893 4.24823 176.097 2.59232C174.3 0.936404 171.948 0.0116516 169.503 0H107.783C105.338 0.011651 102.986 0.936401 101.19 2.59231C99.3929 4.24822 98.282 6.5154 98.0754 8.94785L92.4225 79.4903Z" fill="#F9A826"/>
<path d="M221.135 203.302C220.265 203.157 219.376 203.187 218.517 203.389C217.659 203.59 216.85 203.96 216.136 204.477C215.423 204.994 214.819 205.647 214.36 206.398C213.902 207.15 213.597 207.985 213.464 208.855L210.862 225.907L219.717 228.252L226.205 212.364C226.582 211.441 226.746 210.445 226.685 209.45C226.624 208.454 226.34 207.486 225.853 206.615C225.366 205.745 224.689 204.995 223.872 204.422C223.055 203.848 222.12 203.465 221.135 203.302Z" fill="#A0616A"/>
<path d="M220.969 225.875C225.883 245.373 223.768 263.206 205.469 277.209C183.52 271.168 168.922 256.594 160.016 235.413C159.462 234.096 159.181 232.681 159.19 231.252C159.2 229.824 159.499 228.412 160.069 227.103C160.64 225.793 161.471 224.612 162.511 223.632C163.552 222.652 164.78 221.892 166.123 221.399C168.14 220.658 170.336 220.548 172.417 221.084C174.498 221.62 176.367 222.775 177.775 224.397L199.31 249.213L209.413 224.19L220.969 225.875Z" fill="#F9A826"/>
<path d="M333.427 328.17C313.385 327.107 300.936 320.237 297.921 306.149L301.148 300.241L338.104 317.049C339.037 317.473 339.822 318.165 340.361 319.036C340.899 319.907 341.165 320.918 341.126 321.941C341.087 322.964 340.745 323.952 340.142 324.78C339.539 325.608 338.703 326.238 337.74 326.591L333.427 328.17Z" fill="#8D8D8D"/>
<path d="M317.941 328.311C307.528 327.996 297.514 328.094 288.025 328.735C286.361 328.848 284.719 328.302 283.455 327.215C282.191 326.127 281.408 324.586 281.275 322.926L280.706 315.817L272.636 302.926L279.63 295.944C291.383 307.631 304.272 317.447 319.581 323.282C320.073 323.618 320.442 324.105 320.634 324.669C320.826 325.232 320.83 325.843 320.646 326.409C320.461 326.975 320.098 327.466 319.61 327.809C319.123 328.152 318.537 328.328 317.941 328.311Z" fill="#8D8D8D"/>
<path d="M261.339 277.683C248.042 301.436 234.965 317.449 217.763 326.021C196.6 332.995 181.133 323.756 169.077 304.806L204.045 281.711L209.156 286.813L255.474 251.624C256.605 250.554 258.114 249.974 259.671 250.008C261.229 250.043 262.71 250.69 263.793 251.808L303.3 300.241L298.459 308.297L261.339 277.683Z" fill="#2F2E41"/>
<path d="M273.174 305.612L254.883 277.683L259.187 269.626L283.395 294.87L273.174 305.612Z" fill="#2F2E41"/>
<path d="M167.732 216.454C177.834 216.454 186.023 208.278 186.023 198.192C186.023 188.107 177.834 179.931 167.732 179.931C157.63 179.931 149.441 188.107 149.441 198.192C149.441 208.278 157.63 216.454 167.732 216.454Z" fill="#A0616A"/>
<path d="M172.574 232.029L152.131 225.047C155.156 220.248 156.482 214.575 155.897 208.934H172.574C171.626 217.129 171.483 224.902 172.574 232.029Z" fill="#A0616A"/>
<path d="M216.149 280.905C213.085 282.162 212.861 286.235 209.963 287.619C195.954 294.311 181.133 299.74 170.96 309.371C147.186 293.253 125.149 243.192 153.745 221.288C163.506 226.99 172.225 231.071 172.036 221.288L216.149 280.905Z" fill="#F9A826"/>
<path opacity="0.2" d="M203.776 259.421L193.824 255.93L174.188 271.237L165.386 239.601C164.775 237.407 163.786 238.519 162.365 240.043C160.885 238.675 159.043 237.758 157.058 237.4C155.073 237.042 153.026 237.259 151.16 238.024C149.294 238.79 147.686 240.072 146.525 241.72C145.365 243.367 144.701 245.312 144.611 247.324C143.564 270.272 150.496 289.687 167.732 304.537C190.277 299.718 199.845 284.511 203.776 264.792L202.71 264.083C203.103 262.559 203.458 261.005 203.776 259.421Z" fill="black"/>
<path d="M170.193 174.17C176.227 175.546 183.094 177.496 183.479 179.309C189.685 180.87 194.37 184.61 195.326 190.312C195.406 190.805 195.377 191.309 195.241 191.789C195.104 192.27 194.864 192.714 194.537 193.092C194.21 193.469 193.803 193.771 193.347 193.975C192.891 194.179 192.395 194.28 191.895 194.272C188.52 194.229 183.453 193.906 180.107 192.511C170.388 198.763 168.756 215.025 173.001 226.094L166.322 225.483L159.411 205.287L157.646 224.689L142.404 222.677L144.367 197.936C144.971 192.105 146.959 186.501 150.166 181.59C150.499 181.097 150.863 180.626 151.257 180.179C153.575 177.564 156.56 175.624 159.895 174.566C163.229 173.508 166.788 173.371 170.193 174.17Z" fill="#2F2E41"/>
<path d="M204.581 235.478L221.321 255.127L246.432 225.54L229.465 204.988L204.581 235.478Z" fill="#3F3D56"/>
<path d="M242.133 226.218L222.226 209.957C223.357 207.247 228.786 208.15 228.786 208.15L244.369 223.922C244.912 224.472 245.378 225.092 245.753 225.766L242.133 226.218Z" fill="#F2F2F2"/>
<path d="M243.038 225.089L220.416 207.472L195.306 245.415L218.946 261.338C221.208 262.241 223.47 260.66 223.47 260.66L246.545 225.428L243.038 225.089Z" fill="#3F3D56"/>
<path d="M223.237 212.971L223.023 213.268L237.503 223.656L237.717 223.358L223.237 212.971Z" fill="#F9A826"/>
<path d="M237.908 227.246L218.906 255.929L219.212 256.131L238.214 227.448L237.908 227.246Z" fill="#F9A826"/>
<path d="M201.525 245.491L201.307 245.786L216.687 257.083L216.904 256.789L201.525 245.491Z" fill="#F9A826"/>
<path d="M220.492 213.466L200.811 241.697L201.112 241.906L220.793 213.675L220.492 213.466Z" fill="#F9A826"/>
<path d="M226.571 207.926L226.419 208.092L244.319 224.494L244.472 224.328L226.571 207.926Z" fill="#B3B3B3"/>
<path d="M225.08 208.067L224.93 208.236L243.639 224.725L243.789 224.556L225.08 208.067Z" fill="#B3B3B3"/>
<path d="M223.91 208.395L223.765 208.569L243.186 224.731L243.331 224.557L223.91 208.395Z" fill="#B3B3B3"/>
<path d="M213.617 241.246C212.894 240.744 212.077 240.39 211.215 240.205C210.354 240.02 209.464 240.008 208.597 240.169C207.73 240.331 206.905 240.662 206.168 241.145C205.43 241.627 204.797 242.252 204.303 242.981L194.631 257.273L201.624 263.181L214.307 251.604C215.044 250.931 215.62 250.101 215.992 249.176C216.365 248.251 216.523 247.254 216.457 246.259C216.391 245.265 216.101 244.298 215.61 243.43C215.118 242.562 214.437 241.816 213.617 241.246Z" fill="#A0616A"/>
<path d="M203.776 261.57C199.845 281.289 190.277 296.496 167.732 301.315C150.496 286.464 143.564 267.05 144.611 244.102C144.676 242.675 145.03 241.276 145.652 239.989C146.274 238.703 147.15 237.556 148.228 236.617C149.306 235.678 150.563 234.966 151.924 234.526C153.285 234.086 154.721 233.925 156.146 234.054C158.287 234.248 160.317 235.089 161.968 236.463C163.618 237.838 164.81 239.682 165.386 241.749L174.188 273.386L194.059 255.102L203.776 261.57Z" fill="#F9A826"/>
<path d="M474.787 328.783H0V327.611H475L474.787 328.783Z" fill="#3F3D56"/>
<path d="M248.158 49.1481C247.873 49.1484 247.6 49.2616 247.398 49.463C247.196 49.6644 247.083 49.9375 247.083 50.2223V134.009C247.083 134.294 247.196 134.567 247.398 134.769C247.6 134.97 247.873 135.083 248.158 135.084H318.094C318.38 135.083 318.653 134.97 318.855 134.769C319.057 134.567 319.17 134.294 319.17 134.009V50.2223C319.17 49.9375 319.057 49.6644 318.855 49.463C318.653 49.2617 318.38 49.1484 318.094 49.1481H248.158Z" fill="#8D8D8D"/>
<path d="M255.421 126.758H310.832V57.473H255.421V126.758Z" fill="white"/>
<path d="M364.593 71.1691C364.422 71.1693 364.259 71.2369 364.139 71.3571C364.018 71.4773 363.95 71.6403 363.95 71.8104V113.495C363.95 113.666 364.018 113.829 364.139 113.949C364.259 114.069 364.422 114.137 364.593 114.137H414.696C414.866 114.137 415.029 114.069 415.15 113.949C415.27 113.829 415.338 113.666 415.338 113.495V71.8104C415.338 71.6404 415.27 71.4774 415.15 71.3572C415.029 71.2369 414.866 71.1693 414.696 71.1691L364.593 71.1691Z" fill="#8D8D8D"/>
<path d="M368.928 76.1392V109.167H410.36V76.1392H368.928Z" fill="white"/>
<path d="M292.91 55.056H273.343C272.87 55.0579 272.405 54.935 271.995 54.6997C271.585 54.4645 271.244 54.1252 271.008 53.7163C270.771 53.3075 270.647 52.8435 270.648 52.3714C270.649 51.8992 270.775 51.4358 271.013 51.0278L280.797 34.1093C280.805 34.0954 280.813 34.0815 280.821 34.0676C281.035 33.7077 281.331 33.4034 281.685 33.1796C282.039 32.9557 282.441 32.8186 282.859 32.7794L282.873 32.7781C282.956 32.7705 283.041 32.7665 283.126 32.7665C283.599 32.7637 284.064 32.8866 284.474 33.1226C284.883 33.3586 285.222 33.6991 285.456 34.1093L295.24 51.0278C295.476 51.4361 295.6 51.8992 295.6 52.3705C295.6 52.8419 295.476 53.305 295.24 53.7132C295.004 54.1214 294.664 54.4605 294.255 54.6962C293.846 54.9319 293.382 55.056 292.91 55.056ZM272.803 52.3679C272.803 52.4632 272.829 52.5566 272.877 52.6391C272.923 52.7214 272.991 52.7897 273.073 52.837C273.155 52.8842 273.248 52.9086 273.343 52.9077H292.91C293.005 52.9087 293.098 52.8843 293.18 52.837C293.262 52.7898 293.33 52.7214 293.376 52.6391C293.424 52.5567 293.449 52.4634 293.45 52.3682C293.45 52.2746 293.424 52.1828 293.376 52.1023L283.592 35.1835C283.545 35.1018 283.477 35.034 283.395 34.9869C283.314 34.9397 283.221 34.9149 283.126 34.9149C283.032 34.9149 282.939 34.9397 282.857 34.9869C282.776 35.034 282.708 35.1018 282.66 35.1835L272.877 52.102C272.829 52.1825 272.803 52.2743 272.803 52.3679Z" fill="#8D8D8D"/>
<path d="M283.126 37.8691C284.018 37.8691 284.74 37.1477 284.74 36.2578C284.74 35.3679 284.018 34.6465 283.126 34.6465C282.235 34.6465 281.513 35.3679 281.513 36.2578C281.513 37.1477 282.235 37.8691 283.126 37.8691Z" fill="#8D8D8D"/>
<path d="M394.949 72.5117H384.34C384.083 72.5127 383.831 72.4461 383.609 72.3185C383.387 72.191 383.202 72.0071 383.074 71.7854C382.946 71.5637 382.878 71.3121 382.879 71.0562C382.879 70.8002 382.948 70.5489 383.077 70.3277L388.381 61.155L388.394 61.1324C388.51 60.9373 388.671 60.7724 388.863 60.651C389.055 60.5296 389.273 60.4552 389.499 60.434L389.507 60.4333C389.552 60.4292 389.598 60.427 389.644 60.427C389.9 60.4255 390.153 60.4921 390.374 60.6201C390.596 60.748 390.78 60.9327 390.907 61.155L396.212 70.3277C396.34 70.5491 396.407 70.8002 396.407 71.0557C396.407 71.3113 396.339 71.5623 396.211 71.7837C396.084 72.005 395.899 72.1888 395.678 72.3166C395.456 72.4444 395.205 72.5117 394.949 72.5117ZM384.047 71.0543C384.047 71.106 384.061 71.1566 384.087 71.2013C384.112 71.2459 384.149 71.283 384.193 71.3086C384.238 71.3342 384.288 71.3474 384.34 71.3469H394.949C395 71.3475 395.05 71.3342 395.095 71.3086C395.139 71.283 395.176 71.246 395.201 71.2013C395.227 71.1566 395.241 71.106 395.241 71.0544C395.241 71.0037 395.227 70.9539 395.201 70.9103L389.897 61.7374C389.871 61.6931 389.834 61.6564 389.79 61.6308C389.746 61.6053 389.695 61.5918 389.644 61.5918C389.593 61.5918 389.543 61.6053 389.498 61.6308C389.454 61.6564 389.417 61.6931 389.392 61.7374L384.087 70.9101C384.061 70.9538 384.047 71.0035 384.047 71.0543Z" fill="#8D8D8D"/>
<path d="M389.644 63.1935C390.127 63.1935 390.519 62.8023 390.519 62.3199C390.519 61.8374 390.127 61.4463 389.644 61.4463C389.161 61.4463 388.769 61.8374 388.769 62.3199C388.769 62.8023 389.161 63.1935 389.644 63.1935Z" fill="#8D8D8D"/>
<path d="M256.055 100.377C256.828 98.6046 257.955 97.0082 259.366 95.6852C260.778 94.3622 262.445 93.3402 264.265 92.6817C266.158 91.9521 268.187 91.6395 270.212 91.7653C272.237 91.8911 274.212 92.4524 275.999 93.4106C280.198 95.6351 283.554 99.1323 287.817 101.261C291.963 103.312 296.525 104.385 301.151 104.397C306.39 104.438 311.546 103.102 316.103 100.523C316.28 100.411 316.407 100.235 316.457 100.032C316.506 99.8288 316.475 99.6144 316.37 99.4339C316.264 99.2534 316.092 99.121 315.89 99.0645C315.689 99.008 315.473 99.0319 315.289 99.1312C311.159 101.442 306.52 102.697 301.786 102.783C297.053 102.87 292.371 101.786 288.159 99.6282C283.882 97.389 280.492 93.7735 276.135 91.6755C274.285 90.7793 272.275 90.2586 270.223 90.1435C268.17 90.0285 266.114 90.3214 264.176 91.0053C262.02 91.7271 260.043 92.8976 258.375 94.4393C256.707 95.981 255.386 97.8588 254.499 99.9485C254.107 100.908 255.668 101.326 256.055 100.377V100.377Z" fill="#8D8D8D"/>
<path d="M254.78 115.439C263.736 113.442 273.027 113.474 281.969 115.533C289.913 117.372 298.113 120.681 306.303 118.213C309.962 117.11 313.316 114.905 315.196 111.512C315.699 110.603 314.305 109.79 313.802 110.698C310.263 117.088 301.971 118.166 295.422 117.118C291.046 116.417 286.828 115.013 282.521 114.007C273.261 111.84 263.629 111.798 254.351 113.885C253.338 114.111 253.766 115.664 254.78 115.439Z" fill="#8D8D8D"/>
<path d="M254.198 79.4216C262.786 77.9634 271.581 78.2758 280.043 80.3396C287.949 82.2734 295.676 86.6912 304.035 85.9282C307.905 85.575 311.736 84.154 314.366 81.1982C315.053 80.4252 313.916 79.2816 313.224 80.0588C310.956 82.6087 307.69 83.9302 304.338 84.2873C300.474 84.6988 296.678 83.8996 293.001 82.7642C288.93 81.5073 284.976 79.9151 280.838 78.8762C271.984 76.6567 262.764 76.3132 253.769 77.8679C252.747 78.0421 253.181 79.5951 254.198 79.4216Z" fill="#8D8D8D"/>
<path d="M376.143 75.595C379.854 79.3885 382.413 84.153 383.525 89.3376C384.381 93.462 384.284 97.7267 383.243 101.808C382.202 105.89 380.244 109.682 377.518 112.895C376.849 113.681 377.985 114.826 378.659 114.035C382.374 109.665 384.746 104.317 385.49 98.6344C386.033 94.2475 385.576 89.795 384.156 85.6086C382.735 81.4221 380.386 77.6098 377.285 74.4556C376.556 73.714 375.415 74.8536 376.143 75.595Z" fill="#8D8D8D"/>
<path d="M400.358 72.1566C395.412 75.7783 392.643 81.6242 392.253 87.6707C391.847 93.962 394.251 100.038 398.121 104.922C400.379 107.735 403.076 110.166 406.109 112.122C406.98 112.691 407.79 111.296 406.923 110.73C401.982 107.503 397.754 102.918 395.509 97.4152C394.415 94.8015 393.847 91.9981 393.839 89.1652C393.831 86.3324 394.383 83.5257 395.462 80.9059C396.671 77.9871 398.643 75.4459 401.172 73.5479C402.001 72.9409 401.197 71.5421 400.358 72.1566Z" fill="#8D8D8D"/>
<path d="M286.892 88.3561C291.052 88.3561 294.424 84.9896 294.424 80.8367C294.424 76.6839 291.052 73.3174 286.892 73.3174C282.733 73.3174 279.361 76.6839 279.361 80.8367C279.361 84.9896 282.733 88.3561 286.892 88.3561Z" fill="#8D8D8D"/>
</g>
<defs>
<clipPath id="clip0">
<rect width="475" height="328.783" fill="white"/>
</clipPath>
</defs>
</svg>
